<svg xmlns="http://www.w3.org/2000/svg" width="19.13" height="17.458" viewBox="0 0 19.13 17.458">
  <g id="noun_Calendar_803896" transform="translate(-5 -8.933)">
    <g id="Group_441" data-name="Group 441" transform="translate(5 8.933)">
      <g id="Group_440" data-name="Group 440" transform="translate(0 0)">
        <path id="Path_80" data-name="Path 80" d="M33.592,45.419H22.149v.636a.7.7,0,0,0,.73.663H37.3a.7.7,0,0,0,.73-.663V36.048l-2.5,8.123A2.049,2.049,0,0,1,33.592,45.419Z" transform="translate(-19.936 -30.296)" fill="none"/>
        <path id="Path_81" data-name="Path 81" d="M23.05,43.669l2.367-10.891H11.655L9.222,43.971a.4.4,0,0,0,.028.291.4.4,0,0,0,.357.171H22.154A1.025,1.025,0,0,0,23.05,43.669Z" transform="translate(-8.173 -29.526)" fill="none"/>
        <path id="Path_82" data-name="Path 82" d="M22.564,17.84H20.432v.377a1.151,1.151,0,0,1-.026.242,1.2,1.2,0,0,1-1.173.934h-.29a1.2,1.2,0,0,1-1.173-.934,1.151,1.151,0,0,1-.026-.242V17.84H12.705v.377a1.152,1.152,0,0,1-.026.242,1.2,1.2,0,0,1-1.173.934h-.29a1.2,1.2,0,0,1-1.173-.934,1.151,1.151,0,0,1-.026-.242V17.84h-.7A1.553,1.553,0,0,0,7.75,19.376v.6l-2.7,9.487a1.11,1.11,0,0,0,.177.994A1.337,1.337,0,0,0,6.3,30.94H7.75v.632a1.553,1.553,0,0,0,1.566,1.536H22.564a1.553,1.553,0,0,0,1.566-1.536v-12.2A1.553,1.553,0,0,0,22.564,17.84ZM6.3,30.062a.464.464,0,0,1-.366-.134.245.245,0,0,1-.028-.227L8.4,20.954H22.5l-2.425,8.51a1.014,1.014,0,0,1-.917.6Zm16.932,1.51a.665.665,0,0,1-.671.658H9.316a.666.666,0,0,1-.671-.658V30.94H19.158a1.885,1.885,0,0,0,1.78-1.239l2.3-8.064v9.935Z" transform="translate(-5 -15.649)" fill="#6d6d6d"/>
        <path id="Path_83" data-name="Path 83" d="M31.82,8.933a.793.793,0,0,0-.792.792v1.844a.793.793,0,0,0,.792.792h.335a.793.793,0,0,0,.792-.792V9.725a.793.793,0,0,0-.792-.792Z" transform="translate(-25.578 -8.933)" fill="#6d6d6d"/>
        <path id="Path_84" data-name="Path 84" d="M68.5,8.933h-.335a.793.793,0,0,0-.792.792v1.844a.793.793,0,0,0,.792.792H68.5a.793.793,0,0,0,.792-.792V9.725A.793.793,0,0,0,68.5,8.933Z" transform="translate(-54.316 -8.933)" fill="#6d6d6d"/>
      </g>
    </g>
  </g>
</svg>
