<svg xmlns="http://www.w3.org/2000/svg" width="15.13" height="13.808" viewBox="0 0 15.13 13.808">
  <g id="Group_441" data-name="Group 441" transform="translate(0 0)">
    <g id="Group_440" data-name="Group 440" transform="translate(0 0)">
      <path id="Path_80" data-name="Path 80" d="M30.71,45.419H22.149v.636a.614.614,0,0,0,.546.663H33.484a.614.614,0,0,0,.546-.663V36.048l-1.871,8.123A1.592,1.592,0,0,1,30.71,45.419Z" transform="translate(-19.936 -33.946)" fill="none"/>
      <path id="Path_81" data-name="Path 81" d="M19.634,40.258l1.783-7.48H11.051L9.218,40.466a.251.251,0,0,0,.021.2.313.313,0,0,0,.269.117h9.451A.756.756,0,0,0,19.634,40.258Z" transform="translate(-8.173 -29.526)" fill="none"/>
      <path id="Path_82" data-name="Path 82" d="M18.891,17.84H17.2v.287a.844.844,0,0,1-.021.184.938.938,0,0,1-.928.711h-.229a.938.938,0,0,1-.928-.711.844.844,0,0,1-.021-.184V17.84H11.094v.287a.845.845,0,0,1-.021.184.938.938,0,0,1-.928.711H9.917a.938.938,0,0,1-.928-.711.844.844,0,0,1-.021-.184V17.84H8.414a1.207,1.207,0,0,0-1.239,1.169v.458L5.037,26.685a.819.819,0,0,0,.14.757,1.076,1.076,0,0,0,.853.366H7.175v.481a1.207,1.207,0,0,0,1.239,1.169H18.891a1.207,1.207,0,0,0,1.239-1.169V19.009A1.207,1.207,0,0,0,18.891,17.84ZM6.03,27.139a.375.375,0,0,1-.289-.1.181.181,0,0,1-.023-.173L7.69,20.21H18.84l-1.918,6.475a.8.8,0,0,1-.726.455Zm13.392,1.149a.517.517,0,0,1-.531.5H8.414a.517.517,0,0,1-.531-.5v-.481H16.2a1.489,1.489,0,0,0,1.407-.943l1.817-6.136v7.559Z" transform="translate(-5 -15.649)" fill="#afafaf"/>
      <path id="Path_83" data-name="Path 83" d="M31.82,8.933a.793.793,0,0,0-.792.792v1.844a.793.793,0,0,0,.792.792h.335a.793.793,0,0,0,.792-.792V9.725a.793.793,0,0,0-.792-.792Z" transform="translate(-26.845 -8.933)" fill="#afafaf"/>
      <path id="Path_84" data-name="Path 84" d="M68.5,8.933h-.335a.793.793,0,0,0-.792.792v1.844a.793.793,0,0,0,.792.792H68.5a.793.793,0,0,0,.792-.792V9.725A.793.793,0,0,0,68.5,8.933Z" transform="translate(-57.351 -8.933)" fill="#afafaf"/>
    </g>
  </g>
</svg>
