<svg xmlns="http://www.w3.org/2000/svg" width="22.927" height="14.306" viewBox="0 0 22.927 14.306">
  <g id="noun_sort_by_574468" data-name="noun_sort by_574468" transform="translate(-0.036 -0.347)" opacity="0.323">
    <g id="Group">
      <path id="Path" d="M13.441,0H.958A.948.948,0,0,0,0,.938a.948.948,0,0,0,.958.938H13.441A.948.948,0,0,0,14.4.938.948.948,0,0,0,13.441,0Z" transform="translate(0.036 0.347)"/>
      <path id="Path-2" data-name="Path" d="M10.678,0H.958A.948.948,0,0,0,0,.938a.948.948,0,0,0,.958.938h9.72a.948.948,0,0,0,.958-.937A.948.948,0,0,0,10.678,0Z" transform="translate(0.036 6.483)"/>
      <path id="Path-3" data-name="Path" d="M8.155,0H.958A.948.948,0,0,0,0,.938a.948.948,0,0,0,.958.938h7.2A.948.948,0,0,0,9.114.938.948.948,0,0,0,8.155,0Z" transform="translate(0.036 12.619)"/>
      <path id="Path-4" data-name="Path" d="M7.12,10a.973.973,0,0,0-1.355,0L4.659,11.078V.938a.959.959,0,0,0-1.917,0V11.08L1.636,10A.973.973,0,0,0,.281,10a.923.923,0,0,0,0,1.326l2.74,2.684a.973.973,0,0,0,1.355,0L7.12,11.321A.923.923,0,0,0,7.12,10Z" transform="translate(15.563 0.373)"/>
    </g>
  </g>
</svg>
