<svg id="Group_332" data-name="Group 332" xmlns="http://www.w3.org/2000/svg" width="35.36" height="35.36" viewBox="0 0 35.36 35.36">
  <path id="Path_51" data-name="Path 51" d="M17.68,0A17.657,17.657,0,1,1,5.171,5.171,17.637,17.637,0,0,1,17.68,0Zm0,22.108A2.386,2.386,0,0,1,20.072,24.5a2.414,2.414,0,0,1-2.392,2.424A2.442,2.442,0,0,1,15.256,24.5,2.414,2.414,0,0,1,17.68,22.108Zm0-2.424a1.688,1.688,0,0,1-1.616-1.616l-.808-7.208A2.463,2.463,0,0,1,17.68,8.436a2.413,2.413,0,0,1,2.392,2.424L19.3,18.068A1.688,1.688,0,0,1,17.68,19.684ZM27.894,7.434A14.475,14.475,0,1,0,32.128,17.68,14.552,14.552,0,0,0,27.894,7.434Z" transform="translate(0)" fill="#010101"/>
</svg>
