<svg xmlns="http://www.w3.org/2000/svg" width="19.938" height="21" viewBox="0 0 19.938 21">
  <g id="noun_Power_23052" transform="translate(-17.57 -15.5)">
    <g id="Group_681" data-name="Group 681" transform="translate(17.57 15.5)">
      <g id="Group_680" data-name="Group 680" transform="translate(0)">
        <g id="Group_679" data-name="Group 679" transform="translate(0 3.414)">
          <path id="Path_9" data-name="Path 9" d="M12.039,28.764A9.968,9.968,0,0,1,5.227,11.518,1.261,1.261,0,1,1,6.951,13.36,7.373,7.373,0,0,0,4.592,18.8a7.446,7.446,0,1,0,12.622-5.353,1.261,1.261,0,0,1,1.754-1.813,9.968,9.968,0,0,1-6.929,17.134Z" transform="translate(-2.07 -11.178)" fill="#797979"/>
        </g>
        <path id="Path_10" data-name="Path 10" d="M31.841,10.788A1.261,1.261,0,0,1,30.58,9.526V1.261a1.261,1.261,0,1,1,2.522,0V9.527A1.261,1.261,0,0,1,31.841,10.788Z" transform="translate(-21.873)" fill="#797979"/>
      </g>
    </g>
  </g>
</svg>
