<svg xmlns="http://www.w3.org/2000/svg" width="13.554" height="17.62" viewBox="0 0 13.554 17.62">
  <g id="Group_484" data-name="Group 484" transform="translate(-886 -437.999)">
    <g id="Group_483" data-name="Group 483" transform="translate(886 437.999)">
      <g id="Group_112" data-name="Group 112" transform="translate(0 0)">
        <g id="Group_532" data-name="Group 532">
          <g id="Path_94" data-name="Path 94" transform="translate(0 0.001)" fill="#fff">
            <path d="M 12.80268669128418 16.86929893493652 L 0.749998152256012 16.86929893493652 L 0.749998152256012 0.749999463558197 L 9.979076385498047 0.749999463558197 L 9.979397773742676 2.797699451446533 L 9.979517936706543 3.547579526901245 L 10.72939777374268 3.547579526901245 L 12.78969860076904 3.547579526901245 L 12.80268669128418 16.86929893493652 Z" stroke="none"/>
            <path d="M 1.499998092651367 1.5 L 1.499998092651367 16.11929893493652 L 12.05195426940918 16.11929893493652 L 12.04042911529541 4.297579765319824 L 10.72939777374268 4.297579765319824 L 9.22963809967041 4.297579765319824 L 9.229398727416992 2.797819137573242 L 9.229194641113281 1.5 L 1.499998092651367 1.5 M -1.9073486328125e-06 0 L 10.72895812988281 0 L 10.72939777374268 2.797579765319824 L 13.53896808624268 2.797579765319824 L 13.55341815948486 17.61929893493652 L -1.9073486328125e-06 17.61929893493652 L -1.9073486328125e-06 0 Z" stroke="none" fill="#626262"/>
          </g>
          <path id="Path_98" data-name="Path 98" d="M-1441.248-10407l3.637,3.632h-3.637Z" transform="translate(1451.165 10407.001)" fill="#626262"/>
        </g>
        <path id="Path_89" data-name="Path 89" d="M5.053,32.1l-.829-1.236a.471.471,0,0,0-.843,0,1.14,1.14,0,0,0-.175.63,1.126,1.126,0,0,0,.175.628l1.249,1.863a.471.471,0,0,0,.843,0L9.29,28.293a1.215,1.215,0,0,0,0-1.257.471.471,0,0,0-.843,0Z" transform="translate(0.36 -20.178)" fill="#6d6d6d"/>
      </g>
    </g>
  </g>
</svg>
