<svg xmlns="http://www.w3.org/2000/svg" width="10.494" height="12.752" viewBox="0 0 10.494 12.752">
  <g id="noun_Shield_2057393" transform="translate(1.46 3.496)" opacity="0.52">
    <g id="Group_443" data-name="Group 443" transform="translate(0 -0.25)">
      <path id="Path_1" data-name="Path 1" d="M4.989-.153A11.259,11.259,0,0,1,.473,1.223.559.559,0,0,0,0,1.782V6.169c0,3.613,2.408,4.559,4.946,6.236a.517.517,0,0,0,.6,0c2.537-1.677,4.946-2.624,4.946-6.236V1.782a.559.559,0,0,0-.473-.559A11.259,11.259,0,0,1,5.505-.153.392.392,0,0,0,4.989-.153Zm-.645,7.1L6.924,4.32a.487.487,0,1,1,.688.688L4.688,7.932A.483.483,0,0,1,4,7.975L2.882,6.857a.487.487,0,0,1,.688-.688Z" transform="translate(-1.459 -2.996)" fill-rule="evenodd"/>
    </g>
  </g>
</svg>
