<svg id="noun_Caution_1714508" xmlns="http://www.w3.org/2000/svg" width="21.13" height="21.13" viewBox="0 0 21.13 21.13">
  <path id="Shape" d="M10.565,21.13a10.523,10.523,0,0,1-4.047-.772,10.516,10.516,0,0,1-3.407-2.316A10.56,10.56,0,0,1,.778,14.624,10.511,10.511,0,0,1,0,10.565,10.467,10.467,0,0,1,.778,6.512a10.466,10.466,0,0,1,2.333-3.4A10.534,10.534,0,0,1,6.518.778,10.451,10.451,0,0,1,10.565,0a10.533,10.533,0,0,1,4.062.778,10.627,10.627,0,0,1,3.428,2.333,10.451,10.451,0,0,1,2.307,3.4,10.577,10.577,0,0,1,.769,4.053,10.616,10.616,0,0,1-.769,4.059,10.559,10.559,0,0,1-2.307,3.418,10.637,10.637,0,0,1-3.428,2.316A10.606,10.606,0,0,1,10.565,21.13Zm0-19.4A8.51,8.51,0,0,0,4.332,4.32a8.5,8.5,0,0,0-2.606,6.245,8.583,8.583,0,0,0,2.606,6.268,8.55,8.55,0,0,0,6.234,2.571,8.614,8.614,0,0,0,6.268-2.571A8.641,8.641,0,0,0,19.4,10.565,8.561,8.561,0,0,0,16.834,4.32,8.575,8.575,0,0,0,10.565,1.726Zm.926,13.265H9.649V13.136h1.843V14.99Zm-.024-3.123H9.638V6.14h1.831v5.728Z" transform="translate(0 0)" fill="#484848"/>
</svg>
