<svg id="noun_Caution_1714508" xmlns="http://www.w3.org/2000/svg" viewBox="0 0 28 28">
  <defs>
    <style>
      .cls-1 {
        fill: #484848;
      }
    </style>
  </defs>
  <path id="Shape" class="cls-1" d="M14,28a13.945,13.945,0,0,1-5.363-1.022,13.935,13.935,0,0,1-4.515-3.069,13.993,13.993,0,0,1-3.091-4.53A13.928,13.928,0,0,1,0,14,13.87,13.87,0,0,1,1.031,8.629,13.869,13.869,0,0,1,4.122,4.122,13.958,13.958,0,0,1,8.637,1.031,13.849,13.849,0,0,1,14,0a13.957,13.957,0,0,1,5.382,1.031,14.083,14.083,0,0,1,4.542,3.091,13.849,13.849,0,0,1,3.056,4.507A14.015,14.015,0,0,1,28,14a14.067,14.067,0,0,1-1.019,5.378,13.992,13.992,0,0,1-3.056,4.53,14.1,14.1,0,0,1-4.542,3.069A14.054,14.054,0,0,1,14,28ZM14,2.287A11.277,11.277,0,0,0,5.74,5.725,11.268,11.268,0,0,0,2.287,14,11.373,11.373,0,0,0,5.74,22.306,11.329,11.329,0,0,0,14,25.714a11.415,11.415,0,0,0,8.306-3.407A11.45,11.45,0,0,0,25.713,14a11.344,11.344,0,0,0-3.407-8.276A11.363,11.363,0,0,0,14,2.287Zm1.228,17.578H12.786V17.407h2.443v2.457ZM15.2,15.727H12.771V8.136H15.2v7.59Z"/>
</svg>
