<svg xmlns="http://www.w3.org/2000/svg" viewBox="0 0 16.507 15.227">
  <defs>
    <style>
      .cls-1 {
        fill: #057eff;
      }
    </style>
  </defs>
  <g id="noun_graphical_evaluation_1978449" data-name="noun_graphical evaluation_1978449" transform="translate(-0.238 -0.125)">
    <g id="Group">
      <path id="Path" class="cls-1" d="M2.524,0H.258A.258.258,0,0,0,0,.258v9.891a.243.243,0,0,0,.258.258H2.524a.243.243,0,0,0,.258-.258V.258A.243.243,0,0,0,2.524,0Z" transform="translate(13.961 4.92)"/>
      <path id="Path-2" data-name="Path" class="cls-1" d="M1.41,6.881A1.386,1.386,0,0,0,2.647,4.846l2.4-1.855a1.4,1.4,0,0,0,.927.361,1.383,1.383,0,0,0,.979-.386L9.266,4.589A1.414,1.414,0,0,0,9.4,5.98a1.4,1.4,0,0,0,2.267,0,1.424,1.424,0,0,0,.1-1.494l4.173-3.4-.155,1.648a.256.256,0,0,0,.232.283.27.27,0,0,0,.283-.232L16.5.545a.249.249,0,0,0-.258-.309L14.006,0a.256.256,0,0,0-.283.232.256.256,0,0,0,.232.283L15.6.674,11.456,4.1a1.442,1.442,0,0,0-.9-.335,1.5,1.5,0,0,0-.979.386L7.257,2.528a1.393,1.393,0,1,0-2.5.052L2.337,4.434A1.253,1.253,0,0,0,1.616,4.1a1.388,1.388,0,0,0-1.6,1.6A1.436,1.436,0,0,0,1.41,6.881Z" transform="translate(0.238 0.125)"/>
      <path id="Path-3" data-name="Path" class="cls-1" d="M.258,0A.258.258,0,0,0,0,.258V6.311a.243.243,0,0,0,.258.258H2.524a.243.243,0,0,0,.258-.258V.258A.258.258,0,0,0,2.524,0Z" transform="translate(0.258 8.783)"/>
      <path id="Path-4" data-name="Path" class="cls-1" d="M2.55,0H.258A.258.258,0,0,0,0,.258V6.62a.258.258,0,0,0,.258.258H2.55a.258.258,0,0,0,.258-.258V.258A.258.258,0,0,0,2.55,0Z" transform="translate(9.376 8.448)"/>
      <path id="Path-5" data-name="Path" class="cls-1" d="M.258,0A.277.277,0,0,0,0,.258V9.839a.258.258,0,0,0,.258.258H2.55a.258.258,0,0,0,.258-.258V.258A.277.277,0,0,0,2.55,0Z" transform="translate(4.817 5.229)"/>
    </g>
  </g>
</svg>
