<svg xmlns="http://www.w3.org/2000/svg" width="9.882" height="10.993" viewBox="0 0 9.882 10.993"><g transform="translate(-0.056 -0.09)"><path d="M6.069,4.188a.521.521,0,0,0-.708-.764l-.028.028L2.75,6.035A1.562,1.562,0,0,0,4.958,8.243L6.806,6.4,9.194,4.007A2.347,2.347,0,0,0,5.875.688L3.5,3.09.917,5.66a3.123,3.123,0,0,0,4.417,4.417L8.653,6.757a.521.521,0,0,0-.708-.764l-.028.028L4.6,9.34A2.082,2.082,0,0,1,1.653,6.4L4.236,3.813,6.625,1.424A1.306,1.306,0,0,1,8.472,3.271h0L6.069,5.66,4.236,7.507A.524.524,0,0,1,3.5,7.479a.531.531,0,0,1,0-.708Z" transform="translate(0.056 0.09)" fill="#28a745"/></g></svg>