<svg xmlns="http://www.w3.org/2000/svg" width="10.575" height="12.113" viewBox="0 0 10.575 12.113">
  <g id="Group_83" data-name="Group 83" transform="translate(0)">
    <path id="paperclip" d="M7.574,0A3.086,3.086,0,0,0,5.437.894L1.224,5.016A4.158,4.158,0,0,0,7.1,10.9L9,9,7.953,7.956,6.195,9.669l-.136.2A2.663,2.663,0,0,1,2.269,6.123L6.483,1.955a1.565,1.565,0,0,1,2.182,0,1.537,1.537,0,0,1,0,2.137L4.876,7.835A.407.407,0,0,1,4.3,7.259l.091-.045L5.77,5.789,4.725,4.744l-1.47,1.47A1.875,1.875,0,0,0,5.907,8.866L9.7,5.168A3.023,3.023,0,0,0,7.559.015Z" transform="translate(-0.008)" fill="#919191"/>
  </g>
</svg>
