<svg xmlns="http://www.w3.org/2000/svg" width="13" height="15" viewBox="0 0 13 15">
  <metadata><?xpacket begin="﻿" id="W5M0MpCehiHzreSzNTczkc9d"?>
<x:xmpmeta xmlns:x="adobe:ns:meta/" x:xmptk="Adobe XMP Core 5.6-c138 79.159824, 2016/09/14-01:09:01        ">
   <rdf:RDF xmlns:rdf="http://www.w3.org/1999/02/22-rdf-syntax-ns#">
      <rdf:Description rdf:about=""/>
   </rdf:RDF>
</x:xmpmeta>
                                                                                                    
                                                                                                    
                                                                                                    
                                                                                                    
                                                                                                    
                                                                                                    
                                                                                                    
                                                                                                    
                                                                                                    
                                                                                                    
                                                                                                    
                                                                                                    
                                                                                                    
                                                                                                    
                                                                                                    
                                                                                                    
                                                                                                    
                                                                                                    
                                                                                                    
                                                                                                    
                           
<?xpacket end="w"?></metadata>
<defs>
    <style>
      .cls-1 {
        fill: #666;
        fill-rule: evenodd;
      }
    </style>
  </defs>
  <path id="Forma_1" data-name="Forma 1" class="cls-1" d="M12.7,2.461A0.93,0.93,0,0,0,12,2.143H11v-0.8A1.337,1.337,0,0,0,10.633.393,1.165,1.165,0,0,0,9.75,0h-0.5a1.165,1.165,0,0,0-.883.394A1.337,1.337,0,0,0,8,1.339v0.8H5v-0.8A1.337,1.337,0,0,0,4.633.393,1.165,1.165,0,0,0,3.75,0H3.25a1.165,1.165,0,0,0-.883.394A1.337,1.337,0,0,0,2,1.339v0.8H1a0.931,0.931,0,0,0-.7.318,1.067,1.067,0,0,0-.3.753V13.929a1.067,1.067,0,0,0,.3.753A0.931,0.931,0,0,0,1,15H12a0.931,0.931,0,0,0,.7-0.318,1.067,1.067,0,0,0,.3-0.753V3.214A1.067,1.067,0,0,0,12.7,2.461ZM3.25,13.929H1V11.518H3.25v2.411Zm0-2.947H1V8.3H3.25v2.678Zm0-3.214H1V5.357H3.25V7.768ZM3.074,3.938A0.267,0.267,0,0,1,3,3.75V1.339a0.267,0.267,0,0,1,.074-0.188,0.233,0.233,0,0,1,.176-0.08h0.5a0.233,0.233,0,0,1,.176.08A0.267,0.267,0,0,1,4,1.339V3.75a0.267,0.267,0,0,1-.074.188,0.232,0.232,0,0,1-.176.08H3.25A0.233,0.233,0,0,1,3.074,3.938Zm3.176,9.99H3.75V11.518h2.5v2.411Zm0-2.947H3.75V8.3h2.5v2.678Zm0-3.214H3.75V5.357h2.5V7.768Zm3,6.161H6.75V11.518h2.5v2.411Zm0-2.947H6.75V8.3h2.5v2.678Zm0-3.214H6.75V5.357h2.5V7.768ZM9.074,3.938A0.267,0.267,0,0,1,9,3.75V1.339a0.267,0.267,0,0,1,.074-0.188,0.233,0.233,0,0,1,.176-0.08h0.5a0.233,0.233,0,0,1,.176.08A0.266,0.266,0,0,1,10,1.339V3.75a0.267,0.267,0,0,1-.074.188,0.232,0.232,0,0,1-.176.08H9.25A0.233,0.233,0,0,1,9.074,3.938ZM12,13.929H9.75V11.518H12v2.411Zm0-2.947H9.75V8.3H12v2.678Zm0-3.214H9.75V5.357H12V7.768Z"/>
</svg>
