<svg id="noun_comment_847914" xmlns="http://www.w3.org/2000/svg" width="9" height="8.1" viewBox="0 0 9 8.1">
  <path id="Path" d="M7.309,6.027c.169-.123.34-.238.5-.369a3.17,3.17,0,0,0,.976-1.253A2.553,2.553,0,0,0,8.6,2.011,3.787,3.787,0,0,0,6.62.411,5.735,5.735,0,0,0,2.535.343,4.035,4.035,0,0,0,.522,1.8,2.679,2.679,0,0,0,.647,5.131,4.471,4.471,0,0,0,3.115,6.593a6.046,6.046,0,0,0,2.027.131.277.277,0,0,1,.18.074,5.479,5.479,0,0,0,2.49,1.255c.085.018.171.03.256.043a.22.22,0,0,0,.252-.121.252.252,0,0,0-.034-.291c-.08-.1-.162-.2-.249-.3A3.027,3.027,0,0,1,7.309,6.027Z" transform="translate(0 0)" fill="#626262"/>
</svg>
