<svg xmlns="http://www.w3.org/2000/svg" viewBox="0 0 16.712 15.878">
  <defs>
    <style>
      .cls-1 {
        fill: #28a745;
      }
    </style>
  </defs>
  <g id="noun_Conversation_369616" transform="translate(-0.144 -0.064)">
    <path id="Shape" class="cls-1" d="M5.956,15.878a6.592,6.592,0,0,1-3.234-.833,3.419,3.419,0,0,1-1.739.444,4.17,4.17,0,0,1-.541-.035.174.174,0,0,1-.137-.134.168.168,0,0,1,.068-.173,2.6,2.6,0,0,0,.953-1.208A4.786,4.786,0,0,1,0,10.653C0,7.773,2.672,5.429,5.956,5.429s5.956,2.344,5.956,5.225S9.24,15.878,5.956,15.878Zm2.128-5.871a.647.647,0,1,0,.646.646A.647.647,0,0,0,8.084,10.007Zm-2.145,0a.655.655,0,0,0-.629.646.639.639,0,0,0,.629.647.647.647,0,1,0,0-1.293Zm-2.127,0a.647.647,0,1,0,.646.646A.647.647,0,0,0,3.812,10.007Zm9.036.085h0a5.918,5.918,0,0,0-2.2-4.026,7.4,7.4,0,0,0-4.712-1.64,7.522,7.522,0,0,0-1.072.068A5.781,5.781,0,0,1,10.756,0a6.375,6.375,0,0,1,4.216,1.525,4.869,4.869,0,0,1,1.74,3.682,4.783,4.783,0,0,1-1.328,3.285A2.358,2.358,0,0,0,16.321,9.7a.169.169,0,0,1,.068.173.172.172,0,0,1-.136.134,4.274,4.274,0,0,1-.541.035,3.423,3.423,0,0,1-1.74-.443,5.494,5.494,0,0,1-1.122.493Z" transform="translate(0.144 0.064)"/>
  </g>
</svg>
