<svg xmlns="http://www.w3.org/2000/svg" width="9" height="8.1" viewBox="0 0 9 8.1"><path d="M1.691,6.027c-.169-.123-.34-.238-.5-.369A3.17,3.17,0,0,1,.214,4.405,2.553,2.553,0,0,1,.4,2.011,3.787,3.787,0,0,1,2.38.411,5.735,5.735,0,0,1,6.465.343,4.035,4.035,0,0,1,8.478,1.8a2.679,2.679,0,0,1-.125,3.335A4.471,4.471,0,0,1,5.885,6.593a6.046,6.046,0,0,1-2.027.131.277.277,0,0,0-.18.074,5.479,5.479,0,0,1-2.49,1.255c-.085.018-.171.03-.256.043a.22.22,0,0,1-.252-.121.252.252,0,0,1,.034-.291c.08-.1.162-.2.249-.3A3.027,3.027,0,0,0,1.691,6.027Z" fill="#1485fe"/></svg>