<svg xmlns="http://www.w3.org/2000/svg" width="10.172" height="10.714" viewBox="0 0 10.172 10.714">
  <g id="Group_681" data-name="Group 681" transform="translate(0)">
    <g id="Group_680" data-name="Group 680" transform="translate(0)">
      <g id="Group_679" data-name="Group 679" transform="translate(0 1.742)">
        <path id="Path_9" data-name="Path 9" d="M7.156,20.151a5.086,5.086,0,0,1-3.476-8.8.644.644,0,1,1,.88.939,3.762,3.762,0,0,0-1.2,2.774A3.8,3.8,0,1,0,9.8,12.334a.644.644,0,0,1,.895-.925,5.086,5.086,0,0,1-3.535,8.742Z" transform="translate(-2.07 -11.178)" fill="#797979"/>
      </g>
      <path id="Path_10" data-name="Path 10" d="M31.224,5.5a.643.643,0,0,1-.643-.643V.643a.643.643,0,0,1,1.287,0V4.86A.643.643,0,0,1,31.224,5.5Z" transform="translate(-26.138)" fill="#797979"/>
    </g>
  </g>
</svg>
