<svg xmlns="http://www.w3.org/2000/svg" width="22.135" height="20.2" viewBox="0 0 22.135 20.2">
  <g id="noun_Calendar_803896" transform="translate(-5 -8.933)">
    <g id="Group_441" data-name="Group 441" transform="translate(5 8.933)">
      <g id="Group_440" data-name="Group 440" transform="translate(0 0)">
        <path id="Path_80" data-name="Path 80" d="M34.312,47.022H22.149v.745a.777.777,0,0,0,.776.776H38.254a.777.777,0,0,0,.776-.776V36.048l-2.659,9.513A2.183,2.183,0,0,1,34.312,47.022Z" transform="translate(-17.931 -29.379)" fill="none"/>
        <path id="Path_81" data-name="Path 81" d="M25.615,42.816l2.806-10.038H12.108L9.225,43.095a.294.294,0,0,0,.033.268.531.531,0,0,0,.423.158H24.554A1.173,1.173,0,0,0,25.615,42.816Z" transform="translate(-8.173 -26.914)" fill="none"/>
        <path id="Path_82" data-name="Path 82" d="M25.322,17.84H22.855v.445a1.39,1.39,0,0,1-1.388,1.387h-.335a1.39,1.39,0,0,1-1.388-1.387V17.84H13.916v.445a1.39,1.39,0,0,1-1.388,1.387h-.335a1.39,1.39,0,0,1-1.388-1.387V17.84H9.994a1.814,1.814,0,0,0-1.812,1.812v.71L5.054,31.552a1.329,1.329,0,0,0,.205,1.173,1.535,1.535,0,0,0,1.248.567H8.182v.745a1.814,1.814,0,0,0,1.812,1.812H25.322a1.814,1.814,0,0,0,1.812-1.812V19.652A1.814,1.814,0,0,0,25.322,17.84ZM6.508,32.256a.531.531,0,0,1-.423-.158.294.294,0,0,1-.033-.268L8.935,21.514H25.248L22.443,31.552a1.173,1.173,0,0,1-1.061.7ZM26.1,34.037a.777.777,0,0,1-.776.776H9.994a.777.777,0,0,1-.776-.776v-.745H21.381a2.184,2.184,0,0,0,2.059-1.461L26.1,22.318V34.037Z" transform="translate(-5 -15.649)" fill="#6d6d6d"/>
        <path id="Path_83" data-name="Path 83" d="M31.82,8.933a.793.793,0,0,0-.792.792v1.844a.793.793,0,0,0,.792.792h.335a.793.793,0,0,0,.792-.792V9.725a.793.793,0,0,0-.792-.792Z" transform="translate(-24.627 -8.933)" fill="#6d6d6d"/>
        <path id="Path_84" data-name="Path 84" d="M68.5,8.933h-.335a.793.793,0,0,0-.792.792v1.844a.793.793,0,0,0,.792.792H68.5a.793.793,0,0,0,.792-.792V9.725A.793.793,0,0,0,68.5,8.933Z" transform="translate(-52.036 -8.933)" fill="#6d6d6d"/>
      </g>
    </g>
  </g>
</svg>
