<svg xmlns="http://www.w3.org/2000/svg" width="15" height="4" viewBox="0 0 15 4">
  <metadata><?xpacket begin="﻿" id="W5M0MpCehiHzreSzNTczkc9d"?>
<x:xmpmeta xmlns:x="adobe:ns:meta/" x:xmptk="Adobe XMP Core 5.6-c138 79.159824, 2016/09/14-01:09:01        ">
   <rdf:RDF xmlns:rdf="http://www.w3.org/1999/02/22-rdf-syntax-ns#">
      <rdf:Description rdf:about=""/>
   </rdf:RDF>
</x:xmpmeta>
                                                                                                    
                                                                                                    
                                                                                                    
                                                                                                    
                                                                                                    
                                                                                                    
                                                                                                    
                                                                                                    
                                                                                                    
                                                                                                    
                                                                                                    
                                                                                                    
                                                                                                    
                                                                                                    
                                                                                                    
                                                                                                    
                                                                                                    
                                                                                                    
                                                                                                    
                                                                                                    
                           
<?xpacket end="w"?></metadata>
<defs>
    <style>
      .cls-1 {
        fill: #616161;
        fill-rule: evenodd;
      }
    </style>
  </defs>
  <path id="Ellipse_3_copy_3" data-name="Ellipse 3 copy 3" class="cls-1" d="M1.969,0A1.985,1.985,0,0,1,3.938,2,1.985,1.985,0,0,1,1.969,4,1.985,1.985,0,0,1,0,2,1.985,1.985,0,0,1,1.969,0ZM7.5,0A1.985,1.985,0,0,1,9.469,2,1.969,1.969,0,1,1,5.531,2,1.985,1.985,0,0,1,7.5,0Zm5.531,0A1.985,1.985,0,0,1,15,2a1.969,1.969,0,1,1-3.937,0A1.985,1.985,0,0,1,13.031,0Z"/>
</svg>
