<svg xmlns="http://www.w3.org/2000/svg" width="22.725" height="17.855" viewBox="0 0 22.725 17.855">
  <path id="envelope-o" d="M21.1,271.826v-9.739a7.431,7.431,0,0,1-.875.837q-3.4,2.612-5.4,4.286-.647.545-1.053.85a5.858,5.858,0,0,1-1.1.615,3.181,3.181,0,0,1-1.3.311H11.35a3.181,3.181,0,0,1-1.3-.311,5.858,5.858,0,0,1-1.1-.615q-.406-.3-1.053-.85-2-1.674-5.4-4.286a7.431,7.431,0,0,1-.875-.837v9.739a.411.411,0,0,0,.406.406H20.7a.411.411,0,0,0,.406-.406Zm0-13.328v-.311l-.006-.165-.038-.159-.07-.114-.114-.1-.178-.032H2.029a.411.411,0,0,0-.406.406,4.439,4.439,0,0,0,1.864,3.6q2.447,1.928,5.085,4.02l.444.374q.368.311.583.476t.564.4a3.379,3.379,0,0,0,.64.349,1.5,1.5,0,0,0,.545.114h.025a1.5,1.5,0,0,0,.545-.114,3.379,3.379,0,0,0,.64-.349q.349-.235.564-.4t.583-.476l.444-.374q2.638-2.092,5.085-4.02a5.961,5.961,0,0,0,1.274-1.465A3.167,3.167,0,0,0,21.1,258.5Zm1.623-.469v13.8a2.035,2.035,0,0,1-2.029,2.029H2.029a1.954,1.954,0,0,1-1.433-.6,1.954,1.954,0,0,1-.6-1.433v-13.8A1.954,1.954,0,0,1,.6,256.6a1.954,1.954,0,0,1,1.433-.6H20.7a2.035,2.035,0,0,1,2.029,2.029Z" transform="translate(0 -256)" fill="#fff"/>
</svg>
