<?xml version="1.0" encoding="UTF-8"?>
<svg width="10px" height="8px" viewBox="0 0 10 8" version="1.1" xmlns="http://www.w3.org/2000/svg" xmlns:xlink="http://www.w3.org/1999/xlink">
    <!-- Generator: Sketch 50 (54983) - http://www.bohemiancoding.com/sketch -->
    <title>group</title>
    <desc>Created with Sketch.</desc>
    <defs></defs>
    <g id="Page-1" stroke="none" stroke-width="1" fill="none" fill-rule="evenodd">
        <g id="group" fill="#979797">
            <path d="M6.875,0 C6.2375,0 5.68875,0.355 5.35125,0.875 C5.91375,1.415 6.25,2.15 6.25,3 C6.25,3.29 6.2075,3.574 6.1325,3.844 C6.3575,3.954 6.6,4 6.875,4 C7.9125,4 8.75,3.1 8.75,2 C8.75,0.9 7.9125,0 6.875,0 Z M3.125,1 C2.09,1 1.25,1.895 1.25,3 C1.25,4.105 2.09,5 3.125,5 C4.16,5 5,4.105 5,3 C5,1.895 4.16,1 3.125,1 Z M9.0625,4.156 C8.525,4.666 7.79,4.98 6.9525,5 C7.29,5.38 7.5,5.844 7.5,6.344 L7.5,7 L10,7 L10,5.344 C10,4.824 9.6125,4.376 9.0625,4.156 Z M0.9375,5.156 C0.3875,5.376 0,5.824 0,6.344 L0,8 L6.25,8 L6.25,6.344 C6.25,5.824 5.8625,5.376 5.3125,5.156 C4.7625,5.686 3.9875,6 3.125,6 C2.2625,6 1.4875,5.686 0.9375,5.156 Z" id="Shape"></path>
        </g>
    </g>
</svg>