<svg xmlns="http://www.w3.org/2000/svg" width="26" height="25" viewBox="0 0 26 25">
  <metadata><?xpacket begin="﻿" id="W5M0MpCehiHzreSzNTczkc9d"?>
<x:xmpmeta xmlns:x="adobe:ns:meta/" x:xmptk="Adobe XMP Core 5.6-c138 79.159824, 2016/09/14-01:09:01        ">
   <rdf:RDF xmlns:rdf="http://www.w3.org/1999/02/22-rdf-syntax-ns#">
      <rdf:Description rdf:about=""/>
   </rdf:RDF>
</x:xmpmeta>
                                                                                                    
                                                                                                    
                                                                                                    
                                                                                                    
                                                                                                    
                                                                                                    
                                                                                                    
                                                                                                    
                                                                                                    
                                                                                                    
                                                                                                    
                                                                                                    
                                                                                                    
                                                                                                    
                                                                                                    
                                                                                                    
                                                                                                    
                                                                                                    
                                                                                                    
                                                                                                    
                           
<?xpacket end="w"?></metadata>
<defs>
    <style>
      .cls-1 {
        fill: #5e605f;
        fill-rule: evenodd;
      }
    </style>
  </defs>
  <path id="Shape_1_copy" data-name="Shape 1 copy" class="cls-1" d="M13,10a5,5,0,1,1-5,5A5,5,0,0,1,13,10ZM12.984,0a1.891,1.891,0,1,1-1.891,1.891A1.891,1.891,0,0,1,12.984,0ZM7.5,8.529a8.421,8.421,0,0,1,10.965.19A1.3,1.3,0,0,0,19.974,7.2c-0.709-.9-2.032-2.322-5.861-2.843A9.658,9.658,0,0,0,12.979,5.5L11.845,4.359S8.773,3.98,5.8,7.2C5.8,7.96,5.937,9.05,7.5,8.529ZM25.741,22.467a1.892,1.892,0,1,1-.672-2.594A1.888,1.888,0,0,1,25.741,22.467Zm-4.558-9.059a8.464,8.464,0,0,1-5.717,9.382A1.3,1.3,0,0,0,16,24.864c1.133-.157,3.026-0.581,5.414-3.626a9.68,9.68,0,0,0-.4-1.556l1.553-.4s1.882-2.463.619-6.669C22.535,12.225,21.525,11.8,21.184,13.407ZM0.244,22.234a1.892,1.892,0,1,1,2.573.728A1.9,1.9,0,0,1,.244,22.234Zm10.1,0.629a8.459,8.459,0,0,1-5.192-9.684A1.3,1.3,0,0,0,3.1,12.6c-0.437,1.06-1.028,2.912.389,6.515a9.631,9.631,0,0,0,1.544.437L4.593,21.1s1.171,2.872,5.43,3.9C10.682,24.629,11.561,23.972,10.346,22.863Z"/>
</svg>
