<svg xmlns="http://www.w3.org/2000/svg" width="13.379" height="13.378" viewBox="0 0 13.379 13.378">
  <path id="Path_7" data-name="Path 7" d="M11.689,18.378A6.689,6.689,0,1,0,5,11.689,6.689,6.689,0,0,0,11.689,18.378Zm.372-11.037a1.115,1.115,0,1,1-1.115,1.115A1.115,1.115,0,0,1,12.061,7.341Zm-.372,2.75c1.115,0,1.385.658,1.26,1.469l-.517,3.362a2.876,2.876,0,0,0,1.115-.372,1.983,1.983,0,0,1-1.858,1.486c-1.115,0-1.385-.658-1.26-1.469l.517-3.362a2.876,2.876,0,0,0-1.115.372A1.983,1.983,0,0,1,11.689,10.091Z" transform="translate(-5 -5)" fill="#afafaf"/>
</svg>
