<svg xmlns="http://www.w3.org/2000/svg" viewBox="0 0 345.75 166.16"><defs><style>.cls-1{fill:#69bd45;fill-rule:evenodd;}.cls-2{fill:#1d365c;}</style></defs><title>logo-dark</title><g id="Layer_2" data-name="Layer 2"><g id="Elements"><path class="cls-1" d="M100.89,19.76S98.16,39.66,69,49.15C42.3,57.86,33.58,58.42,37.45,70.21,41.53,82.67,60.58,90.6,90.1,65.53,116.38,43.22,112.34,0,112.34,0S111.82,15.86,55,16.38C28.73,16.62-.59,37.23,10.53,70.21c7.65,22.69,67,78.27-10.53,91.27v4.68s39-2,45.64-28.08S15,76.3,28.08,55C42.78,31.07,73.51,49.75,100.89,19.76Z"/><path class="cls-2" d="M94.24,95.14,91,101.79A29.83,29.83,0,0,0,75.7,97.18c-6.32,0-11.15,2.25-11.15,7.5,0,12.54,31.51,6.11,31.51,26.37,0,11.15-9.86,16.08-20.69,16.08-8,0-16.29-2.79-21.65-7.93l3.22-6.32a28.6,28.6,0,0,0,18.76,7.18c6.64,0,12-2.47,12.11-8,.32-13.61-31.3-6.64-31.19-26.69C56.62,94.5,65.95,90,76.24,90A32.64,32.64,0,0,1,94.24,95.14Z"/><path class="cls-2" d="M112.89,74.14a5.48,5.48,0,1,1-5.47-5.79A5.5,5.5,0,0,1,112.89,74.14Zm-9.54,72.67V90.32h8.25V146.8Z"/><path class="cls-2" d="M183.31,118.72c0,16.72-10.93,28.4-26.9,28.4-10.07,0-17.79-4.61-22-12.43V146.8h-8.36V67.28h8.36v35.26C138.62,94.61,146.33,90,156.19,90,172.16,90,183.31,101.79,183.31,118.72Zm-8.47-.21c0-12.11-8.36-21-20.15-21s-20.26,8.79-20.26,21,8.36,21,20.26,21S174.84,130.73,174.84,118.51Z"/><path class="cls-2" d="M284.92,112V146.8h-8.36V114.22c0-10.08-5.9-16-15.65-16-11.68.32-18.43,8.68-18.43,20.79V146.8H234V114.22c0-10.08-5.79-16-15.65-16-11.58.32-18.54,8.68-18.54,20.79V146.8h-8.25V90.32h8.25v12.75c3.75-8.79,11.36-13,21.54-13.08,10.61,0,17.9,5.47,20.26,14.79,3.54-10,11.47-14.68,22.29-14.79C277.09,90,284.92,98.36,284.92,112Z"/><path class="cls-2" d="M345.69,121.83H299.61c1.5,11,9.54,18,20.47,18a23.58,23.58,0,0,0,17.47-7.07l4.61,4.93c-5.36,6-13.29,9.43-22.72,9.43-16.61,0-28.08-11.68-28.08-28.51s11.58-28.51,28-28.51C337.55,90,346.55,102.65,345.69,121.83Zm-7.5-6.86c-.54-10.83-7.82-17.69-18.86-17.69-10.72,0-18.43,7-19.72,17.69Z"/></g></g></svg>