<svg xmlns="http://www.w3.org/2000/svg" width="26" height="26" viewBox="0 0 26 26">
  <g id="noun_Error_1582590" transform="translate(181 41)">
    <g id="Group_332" data-name="Group 332" transform="translate(-181 -41)">
      <path id="Path_51" data-name="Path 51" d="M13,0A12.983,12.983,0,1,1,3.8,3.8,12.968,12.968,0,0,1,13,0Zm0,16.256a1.755,1.755,0,0,1,1.759,1.759A1.775,1.775,0,0,1,13,19.8a1.8,1.8,0,0,1-1.782-1.782A1.775,1.775,0,0,1,13,16.256Zm0-1.782a1.241,1.241,0,0,1-1.188-1.188l-.594-5.3A1.811,1.811,0,0,1,13,6.2a1.774,1.774,0,0,1,1.759,1.782l-.57,5.3A1.241,1.241,0,0,1,13,14.473Zm7.51-9.007A10.643,10.643,0,1,0,23.623,13,10.7,10.7,0,0,0,20.51,5.466Z" transform="translate(0)" fill="#616161"/>
    </g>
  </g>
</svg>
