<svg xmlns="http://www.w3.org/2000/svg" width="186" height="97" viewBox="0 0 186 97">
  <path id="Shape" d="M186,97H146.32V94.84A36.3,36.3,0,0,0,144.4,82.8a26.208,26.208,0,0,0-5.212-8.946,33.584,33.584,0,0,0-8.06-6.481,8.609,8.609,0,0,0,3.72-6.48,14.385,14.385,0,0,1-4.842-6.53,24.09,24.09,0,0,1-1.358-8.592V40.218c0-.167-.014-.34-.027-.508a3.27,3.27,0,0,1,.027-1.035c-.08-.083-.057-.212-.03-.361a1.459,1.459,0,0,0,.03-.256V34.973a12.344,12.344,0,0,1-3.171-2.726A6.027,6.027,0,0,1,124,28.492V18h28.52a12.148,12.148,0,0,1,8.133,2.9,9.83,9.83,0,0,1,2.444,3.314,10.321,10.321,0,0,1,.893,4.274V45.773a24.494,24.494,0,0,1-1.251,8.391,13.836,13.836,0,0,1-4.639,6.422,9.329,9.329,0,0,0,3.72,7.406l.665.31c6.928,3.235,12.911,6.029,17.032,9.937a19.411,19.411,0,0,1,4.787,6.945,26.364,26.364,0,0,1,1.7,9.963V97Zm-44,0H44V94.831a31.129,31.129,0,0,1,1.747-10.647,23.619,23.619,0,0,1,4.495-7.636c4.034-4.278,9.124-6.719,13.108-8.366,1.285-.568,2.548-1.079,3.77-1.574l.072-.029A36.8,36.8,0,0,0,75.21,62.6a10.15,10.15,0,0,0,4.369-7.746A22.025,22.025,0,0,1,70.841,37.2V30.687a3.951,3.951,0,0,0-.031-.459,1.946,1.946,0,0,1,.031-.781V24.8a8.681,8.681,0,0,1-3.181-3.107,8.475,8.475,0,0,1-1.189-4.33V2.179A2.179,2.179,0,0,1,68.656.01c.071-.007.14-.01.2-.01a1.862,1.862,0,0,1,1.346.557,2.293,2.293,0,0,1,.635,1.622.747.747,0,0,0,.312.62,5.244,5.244,0,0,0,1.248.93,11.478,11.478,0,0,0,3.745.62h25.9A13.1,13.1,0,0,1,111.4,8.127a12.939,12.939,0,0,1,3.759,9.236V28.518a2.206,2.206,0,0,0,.025.271,1.257,1.257,0,0,1-.025.659,1.936,1.936,0,0,1,.031.777,3.967,3.967,0,0,0-.031.463V37.2A23.335,23.335,0,0,1,112.935,47.2a20.962,20.962,0,0,1-6.2,7.656,12.7,12.7,0,0,0,1.331,4.982,10.39,10.39,0,0,0,3.038,3.384c2.715,2.108,6.715,3.762,10.95,5.512l.91.376c4.508,1.914,9.179,4.215,12.8,8.056a22.765,22.765,0,0,1,4.5,7.328A29.14,29.14,0,0,1,142,94.831V97ZM39.68,97H0V95.148a26.2,26.2,0,0,1,1.695-9.915,19.455,19.455,0,0,1,4.764-6.925c4.094-3.9,9.992-6.676,16.822-9.891l.9-.424a9.331,9.331,0,0,0,3.72-7.406,13.85,13.85,0,0,1-4.637-6.422,24.47,24.47,0,0,1-1.253-8.392V28.492A9.987,9.987,0,0,1,25.393,20.9,12.141,12.141,0,0,1,33.48,18H62V28.492a6.027,6.027,0,0,1-1.479,3.755,12.343,12.343,0,0,1-3.172,2.726v10.8a24.085,24.085,0,0,1-1.359,8.592,14.4,14.4,0,0,1-4.841,6.529,8.6,8.6,0,0,0,3.721,6.48,31.906,31.906,0,0,0-7.75,6.481A27.756,27.756,0,0,0,41.753,82.8,34.325,34.325,0,0,0,39.68,94.84V97Z" fill="#d8d8d8"/>
</svg>
