<svg xmlns="http://www.w3.org/2000/svg" width="55" height="55" viewBox="0 0 55 55"><g transform="translate(-76 -45)"><path d="M0,0H28V42H12.159L7.971,45.719,1.032,47.435Z" transform="translate(90 49)" fill="#fff"/><g transform="translate(71 40)"><path d="M49.306,12.639A7.647,7.647,0,0,0,41.667,5H12.639A7.647,7.647,0,0,0,5,12.639v4.583H15.694V52.361A7.647,7.647,0,0,0,23.333,60H52.361A7.647,7.647,0,0,0,60,52.361V47.778H49.306Zm-39.722,0a3.056,3.056,0,0,1,6.111,0ZM55.417,52.361a3.059,3.059,0,0,1-3.056,3.056H30.334a7.6,7.6,0,0,0,.638-3.056ZM26.389,47.778v4.583a3.056,3.056,0,1,1-6.111,0V12.639a7.6,7.6,0,0,0-.638-3.056H41.667a3.059,3.059,0,0,1,3.056,3.056V47.778Z" transform="translate(0 0)" fill="#626262"/><rect width="18.354" height="3.059" transform="translate(23.323 15.694)" fill="#626262"/><rect width="15.35" height="3.059" transform="translate(23.323 21.804)" fill="#626262"/><rect width="12.35" height="3.059" transform="translate(23.323 27.915)" fill="#626262"/><rect width="18.354" height="3.059" transform="translate(23.323 34.026)" fill="#626262"/><rect width="13.35" height="3.059" transform="translate(23.323 40.137)" fill="#626262"/></g></g></svg>