<svg xmlns="http://www.w3.org/2000/svg" width="16.882" height="20.562" viewBox="0 0 16.882 20.562">
  <g id="Group_450" data-name="Group 450" transform="translate(0 0.293) rotate(-1)">
    <path id="Path_5" data-name="Path 5" d="M18.526,44.728a1.705,1.705,0,0,0,1.709,1.581h8.418a1.705,1.705,0,0,0,1.709-1.581L31.388,32.4H17.5Zm8.845-9.444a.578.578,0,0,1,1.154.085l-.534,8.1a.578.578,0,0,1-1.154-.085Zm-3.5.021a.577.577,0,1,1,1.154,0v8.1a.577.577,0,0,1-1.154,0Zm-2.948-.577h0a.576.576,0,0,1,.62.534l.534,8.1a.578.578,0,0,1-1.154.085l-.534-8.1A.562.562,0,0,1,20.918,34.729Z" transform="translate(-16.047 -26.012)" fill="#797979"/>
    <path id="Path_6" data-name="Path 6" d="M25.635,5.427h-3.2A3.3,3.3,0,0,0,19.161,2.5h-.15a3.267,3.267,0,0,0-3.248,2.927h-3.2A1.86,1.86,0,0,0,10.7,7.286a.438.438,0,0,0,.449.449h15.9a.438.438,0,0,0,.449-.449A1.86,1.86,0,0,0,25.635,5.427Zm-6.6-1.2h.15a1.553,1.553,0,0,1,1.5,1.2H17.537A1.535,1.535,0,0,1,19.033,4.231Z" transform="translate(-10.7 -2.5)" fill="#797979"/>
  </g>
</svg>
