<svg xmlns="http://www.w3.org/2000/svg" width="17.4" height="22.62" viewBox="0 0 17.4 22.62">
  <g id="Group_484" data-name="Group 484" transform="translate(-886 -437.999)">
    <g id="Group_483" data-name="Group 483" transform="translate(886 438)">
      <g id="Group_112" data-name="Group 112" transform="translate(0 0)">
        <g id="Group_532" data-name="Group 532" transform="translate(-979 -412)">
          <g id="Path_94" data-name="Path 94" transform="translate(979 412)" fill="#fff">
            <path d="M 16.64925193786621 21.86985778808594 L 0.7500031590461731 21.86985778808594 L 0.7500031590461731 0.7499979138374329 L 13.02404975891113 0.7499979138374329 L 13.02449321746826 3.591677904129028 L 13.02461338043213 4.34155797958374 L 13.77449321746826 4.34155797958374 L 16.63216400146484 4.34155797958374 L 16.64925193786621 21.86985778808594 Z" stroke="none"/>
            <path d="M 1.500002861022949 1.499998092651367 L 1.500002861022949 21.11985778808594 L 15.89851951599121 21.11985778808594 L 15.88289451599121 5.091558456420898 L 13.77449321746826 5.091558456420898 L 12.27472305297852 5.091558456420898 L 12.27449321746826 3.591787338256836 L 12.27416706085205 1.499998092651367 L 1.500002861022949 1.499998092651367 M 3.814697265625e-06 -1.9073486328125e-06 L 13.77393341064453 -1.9073486328125e-06 L 13.77449321746826 3.591558456420898 L 17.38143348693848 3.591558456420898 L 17.39998245239258 22.61985778808594 L 3.814697265625e-06 22.61985778808594 L 3.814697265625e-06 -1.9073486328125e-06 Z" stroke="none" fill="#626262"/>
          </g>
          <path id="Path_98" data-name="Path 98" d="M-1441.248-10407l3.637,3.632h-3.637Z" transform="translate(2434.011 10819)" fill="#626262"/>
        </g>
        <path id="Path_89" data-name="Path 89" d="M5.961,32.1,4.725,30.864a.89.89,0,0,0-1.519.63.875.875,0,0,0,.261.628l1.863,1.863a.889.889,0,0,0,1.257,0l5.693-5.693a.889.889,0,0,0-1.257-1.257Z" transform="translate(0.736 -16.929)" fill="#6d6d6d"/>
      </g>
    </g>
  </g>
</svg>
