<svg xmlns="http://www.w3.org/2000/svg" width="12.217" height="10.977" viewBox="0 0 12.217 10.977">
  <g id="noun_Sound_1779540_1_" data-name="noun_Sound_1779540 (1)" transform="translate(-19 -18.843)">
    <g id="Group_105" data-name="Group 105" transform="translate(19 18.843)">
      <path id="Path_12" data-name="Path 12" d="M19.6,37a.594.594,0,0,0-.6.6v3.365a.594.594,0,0,0,.6.6H20.85a.594.594,0,0,0,.6-.6V37.6a.594.594,0,0,0-.6-.6Z" transform="translate(-19 -33.801)" fill="#5c5c5c"/>
      <path id="Path_13" data-name="Path 13" d="M36,22.324V26.34a.4.4,0,0,0,.159.317l3.964,3.083a.394.394,0,0,0,.634-.317V19.241a.394.394,0,0,0-.634-.317l-3.964,3.083A.4.4,0,0,0,36,22.324Z" transform="translate(-33.005 -18.843)" fill="#5c5c5c"/>
      <path id="Path_14" data-name="Path 14" d="M70.72,36.227a.456.456,0,0,0-.72.36v.072a.456.456,0,0,0,.192.36,3.327,3.327,0,0,1,1.248,2.569,3.243,3.243,0,0,1-1.248,2.545.456.456,0,0,0-.192.36v.1a.456.456,0,0,0,.72.36,4.2,4.2,0,0,0,0-6.722Z" transform="translate(-60.184 -34.011)" fill="#5c5c5c"/>
    </g>
  </g>
</svg>
