<svg xmlns="http://www.w3.org/2000/svg" width="18.037" height="18.05" viewBox="0 0 18.037 18.05">
  <g id="noun_Settings_1415279" transform="translate(-6.969 131.064)">
    <g id="Group_274" data-name="Group 274" transform="translate(6.969 -131.064)">
      <path id="Path_6" data-name="Path 6" d="M14.974,958.3a.43.43,0,0,0-.378.346,7.465,7.465,0,0,1-.5,1.613,1.439,1.439,0,0,1-.73.826,1.453,1.453,0,0,1-1.043-.365,7.364,7.364,0,0,1-1.216-1.165.43.43,0,0,0-.538-.1,9.089,9.089,0,0,0-1.946,1.466.43.43,0,0,0-.058.544,7.557,7.557,0,0,1,.794,1.491,1.425,1.425,0,0,1,.064,1.095,1.445,1.445,0,0,1-.992.474,7.356,7.356,0,0,1-1.683.038.43.43,0,0,0-.448.314,9.072,9.072,0,0,0-.333,2.419.43.43,0,0,0,.346.422,7.5,7.5,0,0,1,1.607.493,1.428,1.428,0,0,1,.819.73,1.414,1.414,0,0,1-.358,1.031A7.472,7.472,0,0,1,7.217,971.2a.43.43,0,0,0-.1.537,9,9,0,0,0,1.466,1.946.43.43,0,0,0,.538.058,7.528,7.528,0,0,1,1.5-.794,1.441,1.441,0,0,1,1.1-.064,1.43,1.43,0,0,1,.474.992,7.526,7.526,0,0,1,.032,1.69.43.43,0,0,0,.314.448,9.051,9.051,0,0,0,2.394.339.43.43,0,0,0,.422-.346,7.362,7.362,0,0,1,.506-1.613,1.452,1.452,0,0,1,.736-.826,1.428,1.428,0,0,1,1.037.365,7.554,7.554,0,0,1,1.216,1.171.43.43,0,0,0,.538.1,9.116,9.116,0,0,0,1.959-1.479.43.43,0,0,0,.051-.538,7.541,7.541,0,0,1-.794-1.5,1.44,1.44,0,0,1-.07-1.1,1.452,1.452,0,0,1,1-.474,7.391,7.391,0,0,1,1.69-.038.43.43,0,0,0,.448-.314,8.978,8.978,0,0,0,.333-2.394.43.43,0,0,0-.346-.429,7.4,7.4,0,0,1-1.607-.5.989.989,0,0,1-.461-1.767,7.49,7.49,0,0,1,1.165-1.216.43.43,0,0,0,.1-.538,9.056,9.056,0,0,0-1.466-1.946.43.43,0,0,0-.538-.058,7.508,7.508,0,0,1-1.5.794,1.436,1.436,0,0,1-1.1.064,1.441,1.441,0,0,1-.474-.992,7.355,7.355,0,0,1-.038-1.683.43.43,0,0,0-.314-.448,9,9,0,0,0-2.407-.346Zm.013,5.447a3.575,3.575,0,1,1-3.578,3.578A3.587,3.587,0,0,1,14.987,963.745Zm0,.864a2.714,2.714,0,1,0,2.714,2.714A2.707,2.707,0,0,0,14.987,964.61Z" transform="translate(-5.969 -958.298)" fill="#626262"/>
    </g>
  </g>
</svg>
