<svg xmlns="http://www.w3.org/2000/svg" width="153.133" height="49.675" viewBox="0 0 153.133 49.675">
  <g id="App_Store_Badge_US_Black" data-name="App Store Badge US Black" transform="translate(-1.133 -1.136)">
    <path id="Background_Black" data-name="Background Black" d="M9.833,49.673c-.4,0-.782-.005-1.174-.014a16.476,16.476,0,0,1-2.427-.212,7.641,7.641,0,0,1-2.152-.712,7.02,7.02,0,0,1-1.814-1.32A6.91,6.91,0,0,1,.94,45.6,7.431,7.431,0,0,1,.235,43.45a16.121,16.121,0,0,1-.216-2.435C.011,40.741,0,39.829,0,39.829v-30s.011-.9.019-1.162A16.065,16.065,0,0,1,.234,6.237,7.474,7.474,0,0,1,.94,4.079,6.978,6.978,0,0,1,2.258,2.263,7.227,7.227,0,0,1,4.079.935,7.562,7.562,0,0,1,6.226.229,16.345,16.345,0,0,1,8.662.016L9.834,0H143.293l1.186.016a16.084,16.084,0,0,1,2.413.211,7.712,7.712,0,0,1,2.17.711A7.264,7.264,0,0,1,152.2,4.082a7.484,7.484,0,0,1,.7,2.141,16.875,16.875,0,0,1,.226,2.451c0,.368,0,.763,0,1.156.01.487.01.951.01,1.418V38.426c0,.472,0,.932-.01,1.4,0,.422,0,.809-.005,1.207a16.533,16.533,0,0,1-.222,2.407,7.453,7.453,0,0,1-.7,2.169,7.117,7.117,0,0,1-1.319,1.8,7.029,7.029,0,0,1-1.817,1.328,7.612,7.612,0,0,1-2.166.714,16.287,16.287,0,0,1-2.427.212c-.38.009-.779.014-1.165.014l-1.408,0Z" transform="translate(1.134 1.136)"/>
    <path id="App_Store" data-name="App Store" d="M31.2,20.285H28.789V4.638h2.336V6.593h.044a4.181,4.181,0,0,1,3.609-2.08l.134,0c3.008,0,4.951,2.356,4.951,6s-1.926,6-4.907,6c-.09,0-.152.006-.208.006a3.984,3.984,0,0,1-3.491-2.063H31.2v5.823ZM34.277,6.572c-1.845,0-3.084,1.586-3.084,3.946s1.24,3.955,3.084,3.955c1.888,0,3.108-1.552,3.108-3.955S36.165,6.572,34.277,6.572ZM18.262,20.285H15.849V4.638h2.336V6.593h.044a4.181,4.181,0,0,1,3.609-2.08l.134,0c3.008,0,4.951,2.356,4.951,6s-1.926,6-4.907,6c-.09,0-.152.006-.208.006a3.984,3.984,0,0,1-3.491-2.063h-.056v5.823ZM21.336,6.572c-1.845,0-3.084,1.586-3.084,3.946s1.24,3.955,3.084,3.955c1.888,0,3.108-1.552,3.108-3.955S23.224,6.572,21.336,6.572ZM52.093,16.664c-3.58,0-5.992-1.869-6.147-4.763h2.471c.178,1.585,1.726,2.65,3.855,2.65,2.027,0,3.5-1.048,3.5-2.492,0-1.25-.889-2-2.972-2.515l-2.091-.5c-2.958-.714-4.335-2.1-4.335-4.347C46.372,1.93,48.785,0,52.24,0c3.4,0,5.742,1.886,5.823,4.694H55.625c-.144-1.592-1.454-2.581-3.42-2.581-1.928,0-3.275.992-3.275,2.414,0,1.137.849,1.81,2.929,2.325l1.777.436c3.283.776,4.683,2.113,4.683,4.471C58.32,14.784,55.934,16.664,52.093,16.664Zm40.186-.123c-3.419,0-5.543-2.287-5.543-5.969s2.136-6.08,5.442-6.08c3.269,0,5.3,2.222,5.3,5.8v.827h-8.3v.146A3.063,3.063,0,0,0,92.221,14.6l.111,0c.083.008.168.012.254.012a2.644,2.644,0,0,0,2.465-1.666h2.292C97.02,15.062,94.937,16.542,92.279,16.542ZM92.16,6.449a2.959,2.959,0,0,0-2.1.867,3,3,0,0,0-.875,2.117h5.879a2.827,2.827,0,0,0-2.822-2.985H92.16ZM72.635,16.542c-3.44,0-5.576-2.308-5.576-6.024a6.325,6.325,0,0,1,1.514-4.4,5.9,5.9,0,0,1,8.13,0,6.33,6.33,0,0,1,1.51,4.4C78.212,14.233,76.075,16.542,72.635,16.542Zm0-10.06c-1.952,0-3.117,1.509-3.117,4.036s1.165,4.033,3.117,4.033,3.118-1.508,3.118-4.033S74.587,6.482,72.635,6.482Zm-8.1,9.981h-.122c-2.381,0-3.309-.89-3.309-3.174V6.549h-1.71V4.638H61.1V1.856h2.424V4.638h2.236V6.549H63.528v6.482c0,1.007.455,1.476,1.431,1.476a7.323,7.323,0,0,0,.795-.056v1.9A6.717,6.717,0,0,1,64.534,16.463ZM2.6,16.4H0L5.823.269h2.7l5.822,16.126H11.7l-1.475-4.36H4.08L2.6,16.4ZM7.12,2.951l-2.4,7.075H9.589l-2.4-7.075ZM82.616,16.4H80.2V4.638h2.3v2h.056a2.8,2.8,0,0,1,2.721-2.126l.1,0H85.4a3.723,3.723,0,0,1,.811.09V6.862a3.355,3.355,0,0,0-.981-.146h-.116l-.088,0a2.431,2.431,0,0,0-2.414,2.707v6.973Z" transform="translate(44.709 23.208)" fill="#fff"/>
    <path id="Download_on_the" data-name="Download on the" d="M87.447,8.257a2.369,2.369,0,0,1-.257-.014h-.071a2.657,2.657,0,0,1-2.63-3.02A2.7,2.7,0,0,1,87.16,2.17h.025c1.633,0,2.609,1.1,2.609,2.948v.4H85.664v.065A1.545,1.545,0,0,0,87.2,7.26h.016a1.342,1.342,0,0,0,.167.011,1.4,1.4,0,0,0,1.225-.72h1.11A2.386,2.386,0,0,1,87.447,8.257ZM87.16,3.152a1.495,1.495,0,0,0-1.5,1.515h2.953a1.411,1.411,0,0,0-1.407-1.515H87.16ZM59.325,8.243A2.77,2.77,0,0,1,56.568,5.2a2.77,2.77,0,1,1,5.515,0,2.77,2.77,0,0,1-2.758,3.039Zm0-5.048c-1,0-1.567.732-1.567,2.009s.571,2.013,1.567,2.013S60.9,6.484,60.9,5.2,60.324,3.2,59.327,3.2ZM35.934,8.243a2.7,2.7,0,0,1-1.462-.417,2.755,2.755,0,0,1-1.3-2.622,2.771,2.771,0,1,1,5.517,0,2.752,2.752,0,0,1-1.3,2.622A2.7,2.7,0,0,1,35.934,8.243Zm0-5.048c-1,0-1.568.732-1.568,2.009s.572,2.013,1.568,2.013S37.5,6.484,37.5,5.2,36.933,3.2,35.936,3.2ZM10.562,8.243A2.671,2.671,0,0,1,9.1,7.826,2.79,2.79,0,0,1,7.805,5.2a2.77,2.77,0,1,1,5.514,0,2.79,2.79,0,0,1-1.3,2.622A2.671,2.671,0,0,1,10.562,8.243Zm0-5.048C9.568,3.2,9,3.928,9,5.2s.571,2.013,1.567,2.013,1.568-.734,1.568-2.013S11.561,3.2,10.565,3.2ZM41.674,8.236a1.768,1.768,0,0,1-1.767-1.76c0-1.038.772-1.657,2.175-1.745l1.585-.091v-.5c0-.623-.425-.967-1.2-.967-.646,0-1.09.237-1.218.65H40.133c.117-1,1.055-1.648,2.389-1.648,1.457,0,2.293.716,2.293,1.965V8.13H43.7V7.308h-.091a1.958,1.958,0,0,1-1.665.921l-.091,0A1.305,1.305,0,0,1,41.674,8.236Zm1.993-2.748-1.428.091c-.8.054-1.171.322-1.171.843s.426.833,1.085.833a1.359,1.359,0,0,0,.138.007,1.381,1.381,0,0,0,1.377-1.286V5.489Zm5.168,2.74h-.076c-1.5,0-2.428-1.158-2.428-3.022,0-1.834.953-3.019,2.428-3.019l.088,0a1.922,1.922,0,0,1,1.705,1.029h.087V0h1.155V8.13H50.687V7.207H50.6A2.032,2.032,0,0,1,48.835,8.228Zm.251-5.006c-.964,0-1.563.76-1.563,1.982,0,1.243.584,1.986,1.563,1.986s1.574-.759,1.574-1.981S50.057,3.222,49.086,3.222Zm26.671,4.94c-1.274,0-1.794-.457-1.794-1.579v-3.3h-.928V2.309h.928V.826h1.155V2.309h1.267v.972H75.118V6.288c0,.609.255.881.827.881a3.9,3.9,0,0,0,.439-.027V8.1A3.7,3.7,0,0,1,75.758,8.163Zm3.359-.032H77.962V0h1.144V3.222H79.2a1.8,1.8,0,0,1,1.636-1.053c.039,0,.083,0,.147.006.035,0,.07,0,.105,0a1.925,1.925,0,0,1,1.909,2.182V8.129H81.839V4.64c0-.921-.432-1.407-1.251-1.407a1.037,1.037,0,0,0-.111,0,1.364,1.364,0,0,0-1.36,1.487V8.13Zm-14.332,0H63.632V2.283h1.11v.929h.086a1.752,1.752,0,0,1,1.6-1.047c.037,0,.079,0,.143.006s.106-.006.145-.006A1.9,1.9,0,0,1,68.6,4.344V8.129H67.444v-3.5c0-.946-.413-1.406-1.262-1.406h-.064a1.34,1.34,0,0,0-1.332,1.482V8.13Zm-40.019,0H23.613V2.283h1.11v.929h.087a1.752,1.752,0,0,1,1.6-1.047c.037,0,.079,0,.143.006s.106-.006.145-.006a1.9,1.9,0,0,1,1.879,2.18V8.129H27.425v-3.5c0-.946-.413-1.406-1.262-1.406H26.1a1.34,1.34,0,0,0-1.332,1.482V8.13Zm-7.816,0H15.766L14.153,2.283h1.171l1.047,4.462h.087l1.2-4.462h1.107l1.2,4.462h.091L21.1,2.283h1.154L20.651,8.129h-1.2L18.246,3.823h-.091l-1.2,4.307Zm14.621,0H30.417V0h1.155V8.129ZM2.8,8.13H0V.382H2.8A2.041,2.041,0,0,1,3.046.373a3.427,3.427,0,0,1,3.4,3.859C6.445,6.709,5.116,8.13,2.8,8.13ZM1.2,1.477V7.035H2.665c.048,0,.1,0,.144,0A2.437,2.437,0,0,0,5.22,4.247,2.44,2.44,0,0,0,2.8,1.474q-.068,0-.137,0Z" transform="translate(46.324 10.957)" fill="#fff"/>
    <path id="Icon" d="M7.316,28.279c-1.853,0-3.3-2.067-4.356-3.577A18.018,18.018,0,0,1,.232,17.887a11.183,11.183,0,0,1,.96-7.44A6.941,6.941,0,0,1,7,6.905H7.08a7.783,7.783,0,0,1,2.845.735,5.324,5.324,0,0,0,1.762.511,5.463,5.463,0,0,0,1.693-.5,9.084,9.084,0,0,1,3.259-.828,4.358,4.358,0,0,1,.453.023,6.611,6.611,0,0,1,5.184,2.8,6.4,6.4,0,0,0-3.061,5.392,6.2,6.2,0,0,0,3.792,5.713,14.214,14.214,0,0,1-1.972,4.016c-1.256,1.879-2.447,3.436-4.313,3.467h-.1a4.9,4.9,0,0,1-2.082-.52,5.726,5.726,0,0,0-2.478-.587,6.069,6.069,0,0,0-2.608.607,5.458,5.458,0,0,1-2.04.542Zm4.2-21.758h-.054a5.977,5.977,0,0,1,1.486-4.365A6.422,6.422,0,0,1,17.116,0a6.3,6.3,0,0,1-1.448,4.533A5.3,5.3,0,0,1,11.519,6.521Z" transform="translate(12.95 11.325)" fill="#fff"/>
  </g>
</svg>
