<svg xmlns="http://www.w3.org/2000/svg" width="29" height="25" viewBox="0 0 29 25">
  <metadata><?xpacket begin="﻿" id="W5M0MpCehiHzreSzNTczkc9d"?>
<x:xmpmeta xmlns:x="adobe:ns:meta/" x:xmptk="Adobe XMP Core 5.6-c138 79.159824, 2016/09/14-01:09:01        ">
   <rdf:RDF xmlns:rdf="http://www.w3.org/1999/02/22-rdf-syntax-ns#">
      <rdf:Description rdf:about=""/>
   </rdf:RDF>
</x:xmpmeta>
                                                                                                    
                                                                                                    
                                                                                                    
                                                                                                    
                                                                                                    
                                                                                                    
                                                                                                    
                                                                                                    
                                                                                                    
                                                                                                    
                                                                                                    
                                                                                                    
                                                                                                    
                                                                                                    
                                                                                                    
                                                                                                    
                                                                                                    
                                                                                                    
                                                                                                    
                                                                                                    
                           
<?xpacket end="w"?></metadata>
<defs>
    <style>
      .cls-1 {
        fill: #5e605f;
        fill-rule: evenodd;
      }
    </style>
  </defs>
  <path id="Forma_1" data-name="Forma 1" class="cls-1" d="M25.561,0H3.439A3.409,3.409,0,0,0,0,3.369V15.381A3.409,3.409,0,0,0,3.439,18.75H6.96v5.682a0.569,0.569,0,0,0,.371.53,0.589,0.589,0,0,0,.638-0.148L13.6,18.75H25.561A3.409,3.409,0,0,0,29,15.381V3.369A3.408,3.408,0,0,0,25.561,0ZM6.96,5.69h8.12a0.568,0.568,0,1,1,0,1.136H6.96A0.568,0.568,0,1,1,6.96,5.69Zm15.66,7.954H6.96a0.568,0.568,0,1,1,0-1.136H22.62A0.568,0.568,0,1,1,22.62,13.645Zm0-3.409H6.96a0.568,0.568,0,1,1,0-1.136H22.62A0.568,0.568,0,1,1,22.62,10.236Z"/>
</svg>
