<svg xmlns="http://www.w3.org/2000/svg" width="21.15" height="16.063" viewBox="0 0 21.15 16.063">
  <path id="flags-crossed" d="M20.9,60.257a8,8,0,0,0-3.688-1.788c-.2-.054-.389-.1-.546-.153a2.522,2.522,0,0,1-1.233-.879.711.711,0,0,0-.377-.567l-.259-.166a.612.612,0,0,0-.33-.1.639.639,0,0,0-.56.345l-3.376,6.04L7.315,56.978a.638.638,0,0,0-.566-.357.612.612,0,0,0-.318.09l-.262.16a.708.708,0,0,0-.388.559,2.508,2.508,0,0,1-1.248.851c-.158.045-.348.092-.549.141A7.972,7.972,0,0,0,.264,60.13c-.32.311-.291.567-.209.728l2.355,4.651a.45.45,0,0,0,.4.254h0a.468.468,0,0,0,.347-.161,3.979,3.979,0,0,1,2.218-1.244A7.129,7.129,0,0,0,8.5,63.241l.013-.009a.54.54,0,0,1,.124-.071.2.2,0,0,1,.03.046l.865,1.571L5.885,71.3l0,0a.714.714,0,0,0,.229.923l.259.166a.612.612,0,0,0,.33.1.638.638,0,0,0,.559-.344l3.234-5.615,3.186,5.784a.638.638,0,0,0,.565.355.612.612,0,0,0,.318-.09l.262-.16a.713.713,0,0,0,.246-.919l-3.581-6.7.945-1.641,0-.007a.2.2,0,0,1,.03-.044.541.541,0,0,1,.123.073l.013.009a7.155,7.155,0,0,0,3.1,1.184,4,4,0,0,1,2.2,1.293.467.467,0,0,0,.353.168h0a.451.451,0,0,0,.4-.245l2.439-4.6C21.176,60.83,21.211,60.575,20.9,60.257Z" transform="translate(0 -56.607)" fill="#626262"/>
</svg>
