<svg xmlns="http://www.w3.org/2000/svg" width="17.889" height="17.889" viewBox="0 0 17.889 17.889">
  <g id="noun_help_1170443" transform="translate(580.096 -642.525)">
    <path id="Path_7" data-name="Path 7" d="M-931.2,956.139a8.972,8.972,0,0,0-12.661,0,8.972,8.972,0,0,0,0,12.66,8.972,8.972,0,0,0,12.661,0A8.972,8.972,0,0,0-931.2,956.139Zm1.281,8.855-2.864-.961a4.993,4.993,0,0,0,0-3.146l2.864-.961A8.313,8.313,0,0,1-929.919,964.994Zm-15.223-5.049,2.864.961a4.992,4.992,0,0,0,0,3.146l-2.864.961A8.313,8.313,0,0,1-945.142,959.945Zm4.748,5.388a4.071,4.071,0,0,1,0-5.746,4.071,4.071,0,0,1,5.746,0,4.071,4.071,0,0,1,0,5.746A4.071,4.071,0,0,1-940.394,965.333Zm5.388-10.475-.961,2.864a4.992,4.992,0,0,0-3.146,0l-.961-2.864A8.312,8.312,0,0,1-935.006,954.858Zm-5.049,15.223.961-2.864a4.992,4.992,0,0,0,3.146,0l.961,2.864A8.313,8.313,0,0,1-940.055,970.081Z" transform="translate(366.379 -311)" fill="#626262"/>
  </g>
</svg>
