<svg xmlns="http://www.w3.org/2000/svg" width="32.547" height="31.861" viewBox="0 0 32.547 31.861">
  <g id="Group_830" data-name="Group 830" transform="translate(-165 -255)">
    <g id="noun_bubble_443990" transform="translate(165 255)">
      <path id="Path_1" data-name="Path 1" d="M33.429,31.656l.433-.578a15.753,15.753,0,0,0,2.962-9.248,15.924,15.924,0,1,0-8.489,14.088l.4-.217.433.144a28.738,28.738,0,0,0,8.2,1.409h.181a44.827,44.827,0,0,1-3.685-4.985Z" transform="translate(-5 -5.9)" fill="#626262"/>
    </g>
    <g id="iconfinder_group_309042" transform="translate(172.296 264.728)">
      <g id="Group_11" data-name="Group 11" transform="translate(9.647 0)">
        <g id="Group_9" data-name="Group 9" transform="translate(0 7.296)">
          <path id="Path_4" data-name="Path 4" d="M15.819,14a5.947,5.947,0,0,0-2.919.73,7.879,7.879,0,0,1,1.7,2.189l.081.162v1.784h6.486V17.243A5.95,5.95,0,0,0,15.819,14Z" transform="translate(-12.9 -14)" fill="#fff"/>
        </g>
        <g id="Group_10" data-name="Group 10" transform="translate(0.081)">
          <circle id="Ellipse_1" data-name="Ellipse 1" cx="2.837" cy="2.837" r="2.837" fill="#fff"/>
        </g>
      </g>
      <g id="Group_12" data-name="Group 12" transform="translate(0 0)">
        <path id="Path_5" data-name="Path 5" d="M3.432,7.837A2.872,2.872,0,0,1,6.27,5a2.837,2.837,0,0,1,0,5.675A2.872,2.872,0,0,1,3.432,7.837ZM6.27,12.3A5.634,5.634,0,0,0,1,15.539v1.621H11.539V15.539A5.634,5.634,0,0,0,6.27,12.3Z" transform="translate(-1 -5)" fill="#fff"/>
      </g>
    </g>
  </g>
</svg>
