<svg xmlns="http://www.w3.org/2000/svg" width="65" height="25" viewBox="0 0 65 25">
  <metadata><?xpacket begin="﻿" id="W5M0MpCehiHzreSzNTczkc9d"?>
<x:xmpmeta xmlns:x="adobe:ns:meta/" x:xmptk="Adobe XMP Core 5.6-c138 79.159824, 2016/09/14-01:09:01        ">
   <rdf:RDF xmlns:rdf="http://www.w3.org/1999/02/22-rdf-syntax-ns#">
      <rdf:Description rdf:about=""/>
   </rdf:RDF>
</x:xmpmeta>
                                                                                                    
                                                                                                    
                                                                                                    
                                                                                                    
                                                                                                    
                                                                                                    
                                                                                                    
                                                                                                    
                                                                                                    
                                                                                                    
                                                                                                    
                                                                                                    
                                                                                                    
                                                                                                    
                                                                                                    
                                                                                                    
                                                                                                    
                                                                                                    
                                                                                                    
                                                                                                    
                           
<?xpacket end="w"?></metadata>
<defs>
    <style>
      .cls-1, .cls-2 {
        fill: #5e605f;
      }

      .cls-1 {
        fill-rule: evenodd;
      }

      .cls-2 {
        font-size: 24px;
        font-family: Roboto;
        font-weight: 700;
      }
    </style>
  </defs>
  <path id="Forma_1_copy" data-name="Forma 1 copy" class="cls-1" d="M27.562,22.168H22.228V18.827a3.007,3.007,0,0,1,2.455-2.959,4.266,4.266,0,0,0,5.78,0,3,3,0,0,1,2.026,1.413,3.007,3.007,0,0,1,2.026-1.413A4.3,4.3,0,0,0,37.394,17v0l0.021,0c0.01,0,.015,0,0.025,0v0a4.312,4.312,0,0,0,2.88-1.131,3,3,0,0,1,2.453,2.956v3.344H27.562Zm-5.088-5.644a10.558,10.558,0,0,1-.089-1.348,6.575,6.575,0,0,1,3.38-5.917l-0.009.022a3.836,3.836,0,0,1,1.806-.463h0.02a3.869,3.869,0,0,1,1.806.463l-0.009-.022a6.572,6.572,0,0,1,3.379,5.917,10.712,10.712,0,0,1-.087,1.348,3.4,3.4,0,0,0-2.333-1.185,3.83,3.83,0,0,1-2.754,1.185v0l-0.01,0-0.01,0v0a3.823,3.823,0,0,1-2.755-1.185A3.406,3.406,0,0,0,22.474,16.524Zm1.966-3.662a3.135,3.135,0,0,0,6.26,0c-0.875-.66-2.969-1.945-3.1-2.783l-0.029-.024-0.03.024C27.413,10.917,25.316,12.2,24.44,12.862Zm9.128-.186A3.85,3.85,0,1,1,37.42,16.53,3.859,3.859,0,0,1,33.569,12.676Zm0.7,0a3.147,3.147,0,0,0,6.283.278,5.464,5.464,0,0,1-1.459-2.748c-0.161.488-3.724,1.2-4.592,1.28A3.121,3.121,0,0,0,34.271,12.676ZM54,2.9V22.088a2.916,2.916,0,0,1-2.9,2.91H13.9a2.916,2.916,0,0,1-2.9-2.91V2.9A2.914,2.914,0,0,1,13.9-.011H51.1A2.912,2.912,0,0,1,54,2.9Zm-38.642,9.6a1.453,1.453,0,1,0-1.453,1.45A1.455,1.455,0,0,0,15.357,12.494ZM49.4,2.011H16.375V22.975H26.56l-0.022-.029H38.462l-0.022.029H49.394V2.011h0Zm2.511,7.411a0.35,0.35,0,1,0-.7,0v6.139a0.35,0.35,0,1,0,.7,0V9.422Z"/>
  <text id="LIVE_copy" data-name="LIVE copy" class="cls-2" transform="translate(18 7.436) scale(0.242)">LIVE</text>
  <path id="Forma_1_copy_9" data-name="Forma 1 copy 9" class="cls-1" d="M59.913,20.622l1.317,1.369a13.843,13.843,0,0,0,0-18.983L59.913,4.378A11.844,11.844,0,0,1,59.913,20.622Zm-0.959-1a10.385,10.385,0,0,0,0-14.246L57.637,6.746a8.4,8.4,0,0,1,0,11.5ZM56.6,7.822L55.287,9.194a4.82,4.82,0,0,1,0,6.611L56.6,17.179A6.817,6.817,0,0,0,56.6,7.822ZM5.03,4.378L3.718,3.008a13.882,13.882,0,0,0,0,18.983L5.03,20.622A11.878,11.878,0,0,1,5.03,4.378Zm0.956,1a10.415,10.415,0,0,0,0,14.246L7.3,18.254a8.422,8.422,0,0,1,0-11.5Zm2.342,11.8,1.31-1.372a4.833,4.833,0,0,1,0-6.611L8.326,7.821A6.836,6.836,0,0,0,8.328,17.178Z"/>
</svg>
