<svg xmlns="http://www.w3.org/2000/svg" width="43" height="25" viewBox="0 0 43 25">
  <metadata><?xpacket begin="﻿" id="W5M0MpCehiHzreSzNTczkc9d"?>
<x:xmpmeta xmlns:x="adobe:ns:meta/" x:xmptk="Adobe XMP Core 5.6-c138 79.159824, 2016/09/14-01:09:01        ">
   <rdf:RDF xmlns:rdf="http://www.w3.org/1999/02/22-rdf-syntax-ns#">
      <rdf:Description rdf:about=""/>
   </rdf:RDF>
</x:xmpmeta>
                                                                                                    
                                                                                                    
                                                                                                    
                                                                                                    
                                                                                                    
                                                                                                    
                                                                                                    
                                                                                                    
                                                                                                    
                                                                                                    
                                                                                                    
                                                                                                    
                                                                                                    
                                                                                                    
                                                                                                    
                                                                                                    
                                                                                                    
                                                                                                    
                                                                                                    
                                                                                                    
                           
<?xpacket end="w"?></metadata>
<defs>
    <style>
      .cls-1, .cls-2 {
        fill: #5e605f;
      }

      .cls-1 {
        fill-rule: evenodd;
      }

      .cls-2 {
        font-size: 24px;
        font-family: Roboto;
        font-weight: 700;
      }
    </style>
  </defs>
  <path id="Forma_1" data-name="Forma 1" class="cls-1" d="M16.562,22.168H11.228V18.827a3.007,3.007,0,0,1,2.454-2.959,4.266,4.266,0,0,0,5.78,0,3,3,0,0,1,2.026,1.413,3.007,3.007,0,0,1,2.026-1.413A4.3,4.3,0,0,0,26.394,17v0l0.021,0c0.01,0,.015,0,0.025,0v0a4.312,4.312,0,0,0,2.88-1.131,3,3,0,0,1,2.453,2.956v3.344H16.562Zm-5.088-5.644a10.558,10.558,0,0,1-.089-1.348,6.575,6.575,0,0,1,3.38-5.917l-0.009.022a3.836,3.836,0,0,1,1.806-.463h0.02a3.869,3.869,0,0,1,1.806.463l-0.009-.022a6.572,6.572,0,0,1,3.379,5.917,10.712,10.712,0,0,1-.087,1.348,3.4,3.4,0,0,0-2.333-1.185,3.83,3.83,0,0,1-2.754,1.185v0l-0.01,0-0.01,0v0a3.823,3.823,0,0,1-2.755-1.185A3.406,3.406,0,0,0,11.474,16.524Zm1.966-3.662a3.135,3.135,0,0,0,6.26,0c-0.875-.66-2.969-1.945-3.1-2.783l-0.029-.024-0.03.024C16.413,10.917,14.316,12.2,13.44,12.862Zm9.128-.186A3.85,3.85,0,1,1,26.42,16.53,3.859,3.859,0,0,1,22.569,12.676Zm0.7,0a3.147,3.147,0,0,0,6.283.278,5.464,5.464,0,0,1-1.459-2.748c-0.161.488-3.724,1.2-4.592,1.28A3.122,3.122,0,0,0,23.271,12.676ZM43,2.9V22.088a2.916,2.916,0,0,1-2.9,2.91H2.9A2.916,2.916,0,0,1,0,22.088V2.9A2.914,2.914,0,0,1,2.9-.011H40.1A2.912,2.912,0,0,1,43,2.9Zm-38.642,9.6A1.453,1.453,0,1,0,2.9,13.944,1.455,1.455,0,0,0,4.357,12.494ZM38.4,2.011H5.375V22.975H15.56l-0.022-.029H27.462l-0.022.029H38.394V2.011h0Zm2.511,7.411a0.35,0.35,0,1,0-.7,0v6.139a0.35,0.35,0,1,0,.7,0V9.422Z"/>
  <text id="LIVE" class="cls-2" transform="translate(7 7.436) scale(0.242)">LIVE</text>
</svg>
