<svg xmlns="http://www.w3.org/2000/svg" width="51" height="32" viewBox="0 0 51 32">
  <metadata><?xpacket begin="﻿" id="W5M0MpCehiHzreSzNTczkc9d"?>
<x:xmpmeta xmlns:x="adobe:ns:meta/" x:xmptk="Adobe XMP Core 5.6-c138 79.159824, 2016/09/14-01:09:01        ">
   <rdf:RDF xmlns:rdf="http://www.w3.org/1999/02/22-rdf-syntax-ns#">
      <rdf:Description rdf:about=""/>
   </rdf:RDF>
</x:xmpmeta>
                                                                                                    
                                                                                                    
                                                                                                    
                                                                                                    
                                                                                                    
                                                                                                    
                                                                                                    
                                                                                                    
                                                                                                    
                                                                                                    
                                                                                                    
                                                                                                    
                                                                                                    
                                                                                                    
                                                                                                    
                                                                                                    
                                                                                                    
                                                                                                    
                                                                                                    
                                                                                                    
                           
<?xpacket end="w"?></metadata>
<defs>
    <style>
      .cls-1, .cls-2 {
        fill: #5e605f;
      }

      .cls-1, .cls-3 {
        fill-rule: evenodd;
      }

      .cls-2 {
        font-size: 24px;
        font-family: Roboto;
        font-weight: 700;
      }

      .cls-3 {
        fill: #fff;
      }
    </style>
  </defs>
  <path id="Forma_1_copy_5" data-name="Forma 1 copy 5" class="cls-1" d="M16.562,22.168H11.228V18.827a3.007,3.007,0,0,1,2.455-2.958,4.266,4.266,0,0,0,5.78,0,3,3,0,0,1,2.026,1.413,3.008,3.008,0,0,1,2.026-1.413A4.305,4.305,0,0,0,26.394,17v0l0.021,0c0.01,0,.015,0,0.025,0v0a4.312,4.312,0,0,0,2.88-1.13,3,3,0,0,1,2.453,2.956v3.344H16.562Zm-5.088-5.644a10.55,10.55,0,0,1-.089-1.348,6.575,6.575,0,0,1,3.38-5.918l-0.009.022a3.838,3.838,0,0,1,1.806-.463h0.02a3.869,3.869,0,0,1,1.806.463l-0.009-.022a6.573,6.573,0,0,1,3.379,5.918,10.716,10.716,0,0,1-.087,1.348,3.4,3.4,0,0,0-2.334-1.185,3.831,3.831,0,0,1-2.754,1.185v0l-0.01,0-0.01,0v0a3.824,3.824,0,0,1-2.755-1.185A3.406,3.406,0,0,0,11.474,16.524Zm1.966-3.662a3.135,3.135,0,0,0,6.26,0c-0.875-.66-2.969-1.945-3.1-2.783l-0.029-.024-0.029.024C16.412,10.917,14.316,12.2,13.44,12.862Zm9.128-.186A3.85,3.85,0,1,1,26.42,16.53,3.859,3.859,0,0,1,22.569,12.676Zm0.7,0a3.147,3.147,0,0,0,6.283.278,5.464,5.464,0,0,1-1.459-2.748c-0.161.488-3.724,1.2-4.592,1.281A3.124,3.124,0,0,0,23.271,12.676ZM43,2.9V22.088a2.916,2.916,0,0,1-2.9,2.91H2.9A2.916,2.916,0,0,1,0,22.088V2.9A2.914,2.914,0,0,1,2.9-.011H40.1A2.912,2.912,0,0,1,43,2.9Zm-38.642,9.6A1.453,1.453,0,1,0,2.9,13.944,1.455,1.455,0,0,0,4.357,12.494ZM38.4,2.01H5.375V22.975H15.56l-0.022-.029H27.462l-0.023.029H38.394V2.01h0Zm2.511,7.411a0.35,0.35,0,1,0-.7,0v6.14a0.35,0.35,0,1,0,.7,0V9.422Z"/>
  <text id="LIVE_copy_2" data-name="LIVE copy 2" class="cls-2" transform="translate(7 7.436) scale(0.242)">LIVE</text>
  <path id="Ellipse_1_copy_3" data-name="Ellipse 1 copy 3" class="cls-3" d="M38.1,11.983a29.815,29.815,0,0,1,5.838.574C43.939,14.017,44,16.48,44,17c-5.114,2.36,2.543,4.752,2.543,10.853C46.543,36.618,47,17.8,47,26c-6.019,0-13.662,1.765-15,0-2.17-2.618-5.156.7-6,0-1.062,0-2.265.022-5.7,0.022C21.14,18.5,29.212,11.983,38.1,11.983Z"/>
  <path id="Shape_9_copy" data-name="Shape 9 copy" class="cls-1" d="M24.431,23.231S36.411,4.6,51,23.231C49.339,26.377,37.953,41.02,24.431,23.231Zm13.71-5.106a5.533,5.533,0,1,1-5.391,5.531A5.462,5.462,0,0,1,38.141,18.125Zm-0.016,2.594a2.938,2.938,0,1,1-2.906,2.938A2.922,2.922,0,0,1,38.125,20.719Z"/>
</svg>
