<svg xmlns="http://www.w3.org/2000/svg" width="45.793" height="45.8" viewBox="0 0 45.793 45.8">
  <g id="noun_check_list_1197924" data-name="noun_check list_1197924" transform="translate(-172.6 65.399)">
    <g id="Group_832" data-name="Group 832" transform="translate(173 -65)">
      <path id="Path_24" data-name="Path 24" d="M7.425,959.365a.523.523,0,0,0-.425.523v12.558a.523.523,0,0,0,.523.523H20.079a.523.523,0,0,0,.523-.523V959.888a.523.523,0,0,0-.523-.523H7.523a.527.527,0,0,0-.1,0Zm.621,1.046h11.51v11.511H8.046Zm8.322,3.123a.523.523,0,0,0-.343.2l-3.286,3.761-1.177-1.177a.526.526,0,0,0-.752.736l1.57,1.57a.523.523,0,0,0,.768-.016l3.662-4.186a.523.523,0,0,0-.441-.883Zm7.8,2.109a.525.525,0,0,0,.1,1.046h27.2a.523.523,0,0,0,0-1.047h-27.2a.527.527,0,0,0-.1,0ZM7.425,975.062a.523.523,0,0,0-.425.523v12.558a.523.523,0,0,0,.523.523H20.079a.523.523,0,0,0,.523-.523V975.585a.523.523,0,0,0-.523-.523H7.523a.527.527,0,0,0-.1,0Zm.621,1.046h11.51v11.511H8.046Zm8.322,3.123a.523.523,0,0,0-.343.2l-3.286,3.761-1.177-1.177a.526.526,0,1,0-.752.736l1.57,1.57a.523.523,0,0,0,.768-.016l3.662-4.186a.523.523,0,0,0-.441-.883Zm7.8,2.109a.526.526,0,0,0,.1,1.047h27.2a.523.523,0,1,0,0-1.046h-27.2a.527.527,0,0,0-.1,0ZM7.425,990.759a.523.523,0,0,0-.425.523v12.558a.523.523,0,0,0,.523.523H20.079a.523.523,0,0,0,.523-.523V991.282a.523.523,0,0,0-.523-.523H7.523a.527.527,0,0,0-.1,0Zm.621,1.046h11.51v11.511H8.046Zm8.322,3.123a.523.523,0,0,0-.343.2l-3.286,3.761-1.177-1.177a.526.526,0,1,0-.752.736l1.57,1.57a.523.523,0,0,0,.768-.016l3.662-4.186a.523.523,0,0,0-.441-.883Zm7.8,2.109a.525.525,0,0,0,.1,1.046h27.2a.523.523,0,0,0,0-1.047h-27.2a.527.527,0,0,0-.1,0Z" transform="translate(-7 -959.363)" fill="#626262" stroke="#626262" stroke-width="0.8"/>
    </g>
  </g>
</svg>
