<svg xmlns="http://www.w3.org/2000/svg" width="33.01" height="22.405" viewBox="0 0 33.01 22.405">
  <g id="Group_6" data-name="Group 6" transform="translate(-174 -267)">
    <g id="iconfinder_group_309042" transform="translate(174 267)">
      <g id="Group_11" data-name="Group 11" transform="translate(17.775 0)">
        <g id="Group_9" data-name="Group 9" transform="translate(0 13.443)">
          <path id="Path_4" data-name="Path 4" d="M18.277,14A10.958,10.958,0,0,0,12.9,15.344a14.516,14.516,0,0,1,3.137,4.033l.149.3v3.286H28.135V19.975A10.963,10.963,0,0,0,18.277,14Z" transform="translate(-12.9 -14)" fill="#626262"/>
        </g>
        <g id="Group_10" data-name="Group 10" transform="translate(0.149)">
          <circle id="Ellipse_1" data-name="Ellipse 1" cx="5.228" cy="5.228" r="5.228" fill="#626262"/>
        </g>
      </g>
      <g id="Group_12" data-name="Group 12" transform="translate(0 0)">
        <path id="Path_5" data-name="Path 5" d="M5.481,10.228A5.292,5.292,0,0,1,10.709,5a5.292,5.292,0,0,1,5.228,5.228,5.292,5.292,0,0,1-5.228,5.228A5.292,5.292,0,0,1,5.481,10.228Zm5.228,8.215A10.38,10.38,0,0,0,1,24.418v2.987H20.418V24.418A10.38,10.38,0,0,0,10.709,18.443Z" transform="translate(-1 -5)" fill="#626262"/>
      </g>
    </g>
  </g>
</svg>
