<svg id="Google_Play_Badge_US" data-name="Google Play Badge US" xmlns="http://www.w3.org/2000/svg" xmlns:xlink="http://www.w3.org/1999/xlink" width="168.115" height="49.812" viewBox="0 0 168.115 49.812">
  <defs>
    <linearGradient id="linear-gradient" x1="0.915" y1="0.049" x2="-0.384" y2="0.719" gradientUnits="objectBoundingBox">
      <stop offset="0" stop-color="#00a0ff"/>
      <stop offset="0.01" stop-color="#00a1ff"/>
      <stop offset="0.26" stop-color="#00beff"/>
      <stop offset="0.51" stop-color="#00d2ff"/>
      <stop offset="0.76" stop-color="#00dfff"/>
      <stop offset="1" stop-color="#00e3ff"/>
    </linearGradient>
    <linearGradient id="linear-gradient-2" x1="1.077" y1="0.5" x2="-1.306" y2="0.5" gradientUnits="objectBoundingBox">
      <stop offset="0" stop-color="#ffe000"/>
      <stop offset="0.41" stop-color="#ffbd00"/>
      <stop offset="0.78" stop-color="orange"/>
      <stop offset="1" stop-color="#ff9c00"/>
    </linearGradient>
    <linearGradient id="linear-gradient-3" x1="0.862" y1="0.179" x2="-0.501" y2="1.947" gradientUnits="objectBoundingBox">
      <stop offset="0" stop-color="#ff3a44"/>
      <stop offset="1" stop-color="#c31162"/>
    </linearGradient>
    <linearGradient id="linear-gradient-4" x1="-0.188" y1="-0.541" x2="0.421" y2="0.249" gradientUnits="objectBoundingBox">
      <stop offset="0" stop-color="#32a071"/>
      <stop offset="0.07" stop-color="#2da771"/>
      <stop offset="0.48" stop-color="#15cf74"/>
      <stop offset="0.8" stop-color="#06e775"/>
      <stop offset="1" stop-color="#00f076"/>
    </linearGradient>
  </defs>
  <rect id="Background_Black" data-name="Background Black" width="168.115" height="49.812" rx="5" transform="translate(0 0)"/>
  <path id="Border_Gray" data-name="Border Gray" d="M161.888,49.811H6.227A6.233,6.233,0,0,1,0,43.586V6.227A6.234,6.234,0,0,1,6.227,0H161.888a6.234,6.234,0,0,1,6.227,6.227V43.586A6.233,6.233,0,0,1,161.888,49.811ZM6.227,1A5.237,5.237,0,0,0,1,6.227V43.586a5.237,5.237,0,0,0,5.231,5.231H161.888a5.237,5.237,0,0,0,5.231-5.231V6.227A5.237,5.237,0,0,0,161.888,1Z" transform="translate(0 0)"/>
  <path id="Google_Play" data-name="Google Play" d="M45.35,21.176h-.03a5.024,5.024,0,0,1-4.664-3.125l2.03-.847a2.914,2.914,0,0,0,2.664,1.881c1.8,0,2.828-1.135,2.828-3.113v-.76H48.1a3.606,3.606,0,0,1-2.729,1.245h-.061a5.3,5.3,0,0,1,0-10.6A3.744,3.744,0,0,1,48.1,7.1h.087V6.233h2.142v9.427a5.694,5.694,0,0,1-1.468,4.224A4.875,4.875,0,0,1,45.35,21.176ZM45.525,8h0a3.225,3.225,0,0,0-.006,6.425,2.963,2.963,0,0,0,2.832-3.212A2.99,2.99,0,0,0,45.525,8ZM99.409,20.915H96.981l2.366-5.243L95.2,6.233h2.49l2.765,6.749h.075l2.664-6.749h2.591L99.409,20.914ZM60.744,16.507h-.1a5.179,5.179,0,0,1-5.18-5.292,4.982,4.982,0,0,1,4.973-5.293h.008A5.01,5.01,0,0,1,64.976,9.3l.262.56-7.085,2.927a2.689,2.689,0,0,0,2.462,1.608l.1,0h.007a3.042,3.042,0,0,0,2.6-1.469l1.806,1.245A5.258,5.258,0,0,1,60.744,16.507Zm-.089-8.535a1.308,1.308,0,0,0-.137,0,2.9,2.9,0,0,0-2.765,3.088L62.486,9.1A2.044,2.044,0,0,0,60.656,7.972ZM33.989,16.507h-.008a5.293,5.293,0,0,1-.025-10.586h.1a5.184,5.184,0,0,1,3.681,1.52,5.325,5.325,0,0,1-3.748,9.067Zm-.256-8.5a3.213,3.213,0,1,0,0,6.425,2.134,2.134,0,0,0,.225-.008,3.062,3.062,0,0,0,2.988-3.212A3.2,3.2,0,0,0,34.9,8.23,3.081,3.081,0,0,0,33.734,8.009Zm-11.354,8.5h0a5.293,5.293,0,0,1-.012-10.586h.087a5.189,5.189,0,0,1,3.682,1.52,5.325,5.325,0,0,1-3.752,9.067Zm-.252-8.5a3.213,3.213,0,0,0,0,6.425c.1,0,.168,0,.239-.009H22.35a3.064,3.064,0,0,0,2.989-3.212,3.212,3.212,0,0,0-3.212-3.2ZM8.891,16.464c-.158,0-.259,0-.338-.008-.1,0-.213.007-.322.007A8.231,8.231,0,0,1,8.231,0c.109,0,.217,0,.322.007h.071a7.876,7.876,0,0,1,5.57,2.328L12.612,3.916A5.7,5.7,0,0,0,8.633,2.309H8.54a5.978,5.978,0,0,0,0,11.955c.045,0,.1,0,.219,0a5.538,5.538,0,0,0,3.928-1.649,4.714,4.714,0,0,0,1.245-2.827H8.552V7.553l7.56-.063A7.421,7.421,0,0,1,16.236,8.9a7.441,7.441,0,0,1-1.943,5.255A7.5,7.5,0,0,1,8.891,16.464Zm80.564-.01a3.6,3.6,0,0,1-3.594-3.434c0-2.273,2.31-3.5,4.483-3.5h.02a5.179,5.179,0,0,1,2.409.6V9.956a2.243,2.243,0,0,0-2.233-2.02,2.059,2.059,0,0,0-.259.015c-.059,0-.119-.007-.179-.007A2.2,2.2,0,0,0,88.164,9.1L86.1,8.238a4.337,4.337,0,0,1,3.885-2.386c.105,0,.188,0,.262.008l.062.037c2.823,0,4.721,1.732,4.721,4.309V16.2H92.785V14.95H92.71a3.26,3.26,0,0,1-2.753,1.5c-.064,0-.137,0-.237-.009S89.543,16.454,89.455,16.454Zm1.275-5.042h-.1c-1.2,0-2.49.435-2.49,1.656,0,.962,1.115,1.32,1.818,1.32l.063.037a2.825,2.825,0,0,0,2.727-2.49A4.139,4.139,0,0,0,90.73,11.412ZM72.648,16.2H70.319V.629H75.9c.131-.008.244-.012.347-.012a4.844,4.844,0,0,1,4.136,7.366A4.871,4.871,0,0,1,76.247,10.3c-.1,0-.218,0-.349-.012h-3.25v5.9ZM72.635,2.8V8.1h3.25l.049.037a2.671,2.671,0,1,0,0-5.343ZM54.329,16.2H52V.629h2.328V16.194Zm30.262,0H82.262V.629h2.329V16.194Z" transform="translate(50.898 21.164)" fill="#fff"/>
  <path id="GET_IT_ON" data-name="GET IT ON" d="M4.024,7.817l-.1,0a3.922,3.922,0,0,1-2.78-6.687A3.756,3.756,0,0,1,3.809.007h.1a3.836,3.836,0,0,1,1.514.31A3.106,3.106,0,0,1,6.6,1.153l-.66.66A2.484,2.484,0,0,0,4.03.926c-.045,0-.091,0-.136,0H3.877A2.889,2.889,0,0,0,.992,3.918,2.931,2.931,0,0,0,2.764,6.656,2.966,2.966,0,0,0,3.931,6.9a2.922,2.922,0,0,0,2.042-.826A2.351,2.351,0,0,0,6.6,4.553h-2.7v-.9H7.517a2.836,2.836,0,0,1,.049.56,3.384,3.384,0,0,1-.934,2.49A3.638,3.638,0,0,1,4.024,7.817Zm33.418,0A3.862,3.862,0,0,1,34.7,6.682a4.036,4.036,0,0,1,0-5.541,3.859,3.859,0,0,1,5.478,0,4.018,4.018,0,0,1,0,5.541A3.858,3.858,0,0,1,37.442,7.813Zm0-6.876a2.858,2.858,0,0,0-2.03.838,3.179,3.179,0,0,0,0,4.285,2.876,2.876,0,0,0,4.059,0,3.179,3.179,0,0,0,0-4.285A2.858,2.858,0,0,0,37.442.937Zm6.164,6.718h-.972V.182h1.171L47.441,6V.182H48.4V7.652h-1l-3.8-6.089V7.654Zm-15.23,0h-.958V1.1H25.325V.182h5.131V1.1h-2.08v6.55Zm-4.259,0h-.958V.182h.958V7.653Zm-6.762,0H16.4V1.1H14.3V.182H19.5V1.1H17.355v6.55Zm-4.085,0H8.912V.182H13.27V1.1H9.908V3.47h3.064v.9H9.908V6.732H13.27v.92Z" transform="translate(51.485 8.535)" fill="#fff" stroke="#fff" stroke-miterlimit="10" stroke-width="0.2"/>
  <g id="Icon" transform="translate(12.416 8.884)">
    <path id="Shape" d="M.577.087A2.491,2.491,0,0,0,0,1.831V29.377A2.491,2.491,0,0,0,.577,31.12l.087.087L16.094,15.79v-.361L.664,0Z" transform="translate(0.008 0.418)" fill="url(#linear-gradient)"/>
    <path id="Shape-2" data-name="Shape" d="M5.106,10.66,0,5.517V5.156L5.106,0l.112.062,6.114,3.474c1.743.984,1.743,2.6,0,3.6L5.243,10.6Z" transform="translate(16.102 10.692)" fill="url(#linear-gradient-2)"/>
    <path id="Shape-3" data-name="Shape" d="M20.772,5.255,15.516,0,0,15.516a2.03,2.03,0,0,0,2.59.075L20.784,5.255" transform="translate(0.585 16.022)" fill="url(#linear-gradient-3)"/>
    <path id="Shape-4" data-name="Shape" d="M20.784,10.767,2.59.431A2.03,2.03,0,0,0,0,.505L15.529,16.022Z" transform="translate(0.573 0)" fill="url(#linear-gradient-4)"/>
    <path id="Shape-5" data-name="Shape" d="M20.622,0,2.578,10.274a2.08,2.08,0,0,1-2.491,0L0,10.361l.087.087a2.067,2.067,0,0,0,2.491,0L20.772.112Z" transform="translate(0.585 21.165)" opacity="0.2"/>
    <path id="Shape-6" data-name="Shape" d="M.577,15.529h0A2.492,2.492,0,0,1,0,13.874a2.529,2.529,0,0,0,.576,1.468l.087.1-.086.086ZM21.311,5.255h0L21.2,5.143l6.227-3.525A2.3,2.3,0,0,0,28.671,0a2.188,2.188,0,0,1-1.245,1.793L21.312,5.255Z" transform="translate(0.008 16.022)" opacity="0.12"/>
    <path id="Shape-7" data-name="Shape" d="M3.163.59l24.271,13.8a2.316,2.316,0,0,1,1.245,1.619,2.179,2.179,0,0,0-1.245-1.793L3.163.416C1.42-.568,0,.254,0,2.246v.187C.037.428,1.432-.394,3.163.59Z" transform="translate(0 0.015)" fill="#fff" opacity="0.25"/>
  </g>
</svg>
