<svg xmlns="http://www.w3.org/2000/svg" width="18.916" height="12.864" viewBox="0 0 18.916 12.864">
  <g id="noun_graduation_2626819" transform="translate(-124.074 197.15)">
    <path id="Path_22" data-name="Path 22" d="M23.646,23.079l-8.917,3.174a.518.518,0,0,1-.355,0L5.435,23.079a.529.529,0,0,1,0-1l8.917-3.2a.518.518,0,0,1,.355,0l8.938,3.2A.537.537,0,0,1,23.646,23.079ZM23,26.713V24.436l-1.065.376v1.942a.952.952,0,0,0-.355.731.914.914,0,0,0,.919.919.927.927,0,0,0,.919-.919A.887.887,0,0,0,23,26.713Zm-8.458.647A1.557,1.557,0,0,1,14,27.276L8.255,25.23v4.448a10.689,10.689,0,0,0,12.551,0h0V25.209l-5.722,2.047A1.668,1.668,0,0,1,14.54,27.36Z" transform="translate(119 -216)" fill="#626262"/>
  </g>
</svg>
