<svg xmlns="http://www.w3.org/2000/svg" width="28" height="25" viewBox="0 0 28 25">
  <metadata><?xpacket begin="﻿" id="W5M0MpCehiHzreSzNTczkc9d"?>
<x:xmpmeta xmlns:x="adobe:ns:meta/" x:xmptk="Adobe XMP Core 5.6-c138 79.159824, 2016/09/14-01:09:01        ">
   <rdf:RDF xmlns:rdf="http://www.w3.org/1999/02/22-rdf-syntax-ns#">
      <rdf:Description rdf:about=""/>
   </rdf:RDF>
</x:xmpmeta>
                                                                                                    
                                                                                                    
                                                                                                    
                                                                                                    
                                                                                                    
                                                                                                    
                                                                                                    
                                                                                                    
                                                                                                    
                                                                                                    
                                                                                                    
                                                                                                    
                                                                                                    
                                                                                                    
                                                                                                    
                                                                                                    
                                                                                                    
                                                                                                    
                                                                                                    
                                                                                                    
                           
<?xpacket end="w"?></metadata>
<defs>
    <style>
      .cls-1 {
        fill: #5e605f;
        fill-rule: evenodd;
      }
    </style>
  </defs>
  <path class="cls-1" d="M10.5,0a5.9,5.9,0,0,1,5.844,5.953A5.9,5.9,0,0,1,10.5,11.906,5.9,5.9,0,0,1,4.656,5.953,5.9,5.9,0,0,1,10.5,0ZM0,25H21C21,10.789,0,10.565,0,25Zm20.5-8A7.263,7.263,0,0,1,28,24a7.263,7.263,0,0,1-7.5,7A7.263,7.263,0,0,1,13,24,7.263,7.263,0,0,1,20.5,17Z"/>
  <path id="Shape_8_copy_2" data-name="Shape 8 copy 2" class="cls-1" d="M21.5,9a3.722,3.722,0,0,1,3.625,3.813,3.63,3.63,0,1,1-7.25,0A3.722,3.722,0,0,1,21.5,9ZM15,25H28C28,15.9,15,15.762,15,25Z"/>
</svg>
