<svg xmlns="http://www.w3.org/2000/svg" width="33.99" height="27.887" viewBox="0 0 33.99 27.887">
  <g id="old-fashion-briefcase" transform="translate(0.002 -4.509)">
    <g id="Group_840" data-name="Group 840" transform="translate(-0.001 4.509)">
      <g id="Group_839" data-name="Group 839">
        <path id="Path_32" data-name="Path 32" d="M25.993,28.629v-.756a1.666,1.666,0,0,0-3.333,0v.756a1.666,1.666,0,0,0,3.333,0Z" transform="translate(-7.331 -11.529)" fill="#626262"/>
        <path id="Path_33" data-name="Path 33" d="M20.131,30.929a2.93,2.93,0,0,1-5.619,0H3.033a4.7,4.7,0,0,1-2.023-.461V38.09A2.714,2.714,0,0,0,3.716,40.8H30.927a2.714,2.714,0,0,0,2.706-2.706V30.469a4.7,4.7,0,0,1-2.023.461Z" transform="translate(-0.326 -12.908)" fill="#626262"/>
        <path id="Path_34" data-name="Path 34" d="M31.169,8.844h-6.5A5.153,5.153,0,0,0,19.6,4.509h-5.2A5.153,5.153,0,0,0,9.312,8.844H2.818A2.772,2.772,0,0,0,0,11.549V17.8A2.706,2.706,0,0,0,2.7,20.5H14.056a2.939,2.939,0,0,1,.9-1.984c.016-.015.035-.028.052-.043a2.971,2.971,0,0,1,.372-.3c.047-.032.1-.053.151-.082a2.892,2.892,0,0,1,.336-.177,2.946,2.946,0,0,1,.29-.09c.084-.025.164-.058.251-.076a2.928,2.928,0,0,1,.584-.059,2.961,2.961,0,0,1,.584.059c.087.018.167.051.252.076a2.882,2.882,0,0,1,.29.091,2.924,2.924,0,0,1,.335.177c.049.029.1.051.152.083a2.9,2.9,0,0,1,.371.3c.017.016.038.028.053.044a2.934,2.934,0,0,1,.9,1.984H31.282A2.706,2.706,0,0,0,33.988,17.8V11.551A2.772,2.772,0,0,0,31.169,8.844Zm-19.251,0a2.612,2.612,0,0,1,2.474-1.8h5.2a2.612,2.612,0,0,1,2.473,1.8Z" transform="translate(0.001 -4.509)" fill="#626262"/>
      </g>
    </g>
  </g>
</svg>
