<svg xmlns="http://www.w3.org/2000/svg" width="17.59" height="11.424" viewBox="0 0 17.59 11.424"><g transform="translate(-187.913 330.907)"><g transform="translate(187.913 -330.907)"><g transform="translate(0 0)"><path d="M24.37,35.552a1.159,1.159,0,0,1-2.186.312l-2.269-4.652L18.3,34a1.155,1.155,0,0,1-.291.486l-.006.006a1.16,1.16,0,0,1-2.033-.4l-.913-.913-1.09,1.346a1.16,1.16,0,0,1-1.8-1.46l1.9-2.347a1.16,1.16,0,0,1,1.744-.064q.034.029.066.061l1.042,1.042,1.834-3.177a1.151,1.151,0,0,1,.425-.425,1.16,1.16,0,0,1,1.936.233L23,32.252,25.069,25.9A1.161,1.161,0,0,1,26.7,25.22a1.159,1.159,0,0,1,.908.576l1.74,3.014a1.16,1.16,0,0,1-2.009,1.16l-.739-1.28Z" transform="translate(-11.913 -25.093)" fill="#616161" fill-rule="evenodd"/></g></g></g></svg>