<svg xmlns="http://www.w3.org/2000/svg" viewBox="0 0 20.688 10.829">
  <defs>
    <style>
      .cls-1 {
        fill: #f69d27;
      }
    </style>
  </defs>
  <path id="Shape" class="cls-1" d="M20.687,10.829H16.259v-.242a3.445,3.445,0,0,0-.8-2.352,3.764,3.764,0,0,0-.9-.727.965.965,0,0,0,.415-.726,1.971,1.971,0,0,1-.692-1.695V4.464c0-.019,0-.038,0-.057a.373.373,0,0,1,0-.116c-.009-.009-.006-.024,0-.041a.166.166,0,0,0,0-.028V3.875c-.121-.074-.519-.348-.519-.726V1.973h3.183a1.191,1.191,0,0,1,1.28,1.176V5.087a1.934,1.934,0,0,1-.657,1.661,1.045,1.045,0,0,0,.415.83l.074.035c1.58.742,2.624,1.231,2.624,3.01v.206Zm-4.912,0H4.912v-.242A3.029,3.029,0,0,1,5.6,8.546a4.078,4.078,0,0,1,1.453-.934c.12-.054.24-.1.355-.15l.07-.029a4.025,4.025,0,0,0,.889-.444,1.135,1.135,0,0,0,.484-.865,2.456,2.456,0,0,1-.968-1.972V3.426a.416.416,0,0,0,0-.051.224.224,0,0,1,0-.087V2.768a.96.96,0,0,1-.484-.83V.243A.242.242,0,0,1,7.645,0h.023a.23.23,0,0,1,.22.243.086.086,0,0,0,.034.069.6.6,0,0,0,.139.1,1.277,1.277,0,0,0,.415.068h2.872A1.438,1.438,0,0,1,12.8,1.939V3.184a.168.168,0,0,0,0,.018v.012a.133.133,0,0,1,0,.074.218.218,0,0,1,0,.085.452.452,0,0,0,0,.054v.726a2.442,2.442,0,0,1-.934,1.972,1.172,1.172,0,0,0,.484.934,5.518,5.518,0,0,0,1.21.613l.105.044a4.051,4.051,0,0,1,1.418.9,2.834,2.834,0,0,1,.692,1.972v.241Zm-11.347,0H0v-.207c0-1.768,1.033-2.257,2.6-3l.1-.048a1.043,1.043,0,0,0,.415-.83,1.935,1.935,0,0,1-.657-1.661V3.149a1.2,1.2,0,0,1,1.28-1.176H6.919V3.149c0,.378-.4.651-.519.726V5.087a1.972,1.972,0,0,1-.692,1.695.961.961,0,0,0,.416.726,3.564,3.564,0,0,0-.865.727,3.492,3.492,0,0,0-.831,2.352v.241Z"/>
</svg>
