<svg xmlns="http://www.w3.org/2000/svg" viewBox="0 0 17.967 13.985">
  <defs>
    <style>
      .cls-1 {
        fill: #484848;
      }
    </style>
  </defs>
  <g id="noun_Add_Folder_1011531" data-name="noun_Add Folder_1011531" transform="translate(-0.025 -0.001)">
    <g id="Group">
      <path id="Shape" class="cls-1" d="M14.2,13.985a3.755,3.755,0,0,1-2.66-1.094,3.716,3.716,0,0,1,0-5.281A3.754,3.754,0,0,1,14.15,6.518h.057A3.75,3.75,0,0,1,16.865,7.61a3.716,3.716,0,0,1,0,5.281A3.755,3.755,0,0,1,14.2,13.985Zm-2.135-4.3a.213.213,0,0,0-.213.212v.715a.213.213,0,0,0,.213.212h1.562v1.55a.213.213,0,0,0,.213.212h.72a.213.213,0,0,0,.213-.212v-1.55H16.34a.213.213,0,0,0,.213-.212V9.894a.213.213,0,0,0-.213-.212H14.778V8.132a.211.211,0,0,0-.062-.15.215.215,0,0,0-.151-.061h-.72a.213.213,0,0,0-.213.212v1.55Zm-1.748,3.694H1.33A1.339,1.339,0,0,1,0,12.032V1.05A1.046,1.046,0,0,1,1.039,0H7.121C8.1,0,8.758,1.113,9.391,2.189h6.624a1.339,1.339,0,0,1,1.33,1.345V6.276A4.934,4.934,0,0,0,13.986,4.95a5.037,5.037,0,0,0-3.666,8.425Z" transform="translate(0.025 0.001)"/>
    </g>
  </g>
</svg>
