<svg id="noun_grid_887265" xmlns="http://www.w3.org/2000/svg" viewBox="0 0 16 16">
  <defs>
    <style>
      .cls-1 {
        fill: #d8d8d8;
      }
    </style>
  </defs>
  <g id="Group">
    <path id="Path" class="cls-1" d="M7,1.261A1.261,1.261,0,0,0,5.739,0H1.261A1.261,1.261,0,0,0,0,1.261V5.739A1.261,1.261,0,0,0,1.261,7H5.739A1.261,1.261,0,0,0,7,5.739Z"/>
    <path id="Path-2" data-name="Path" class="cls-1" d="M7,1.261A1.261,1.261,0,0,0,5.739,0H1.261A1.261,1.261,0,0,0,0,1.261V5.739A1.261,1.261,0,0,0,1.261,7H5.739A1.261,1.261,0,0,0,7,5.739Z" transform="translate(9)"/>
    <path id="Path-3" data-name="Path" class="cls-1" d="M7,1.261A1.261,1.261,0,0,0,5.739,0H1.261A1.261,1.261,0,0,0,0,1.261V5.739A1.261,1.261,0,0,0,1.261,7H5.739A1.261,1.261,0,0,0,7,5.739Z" transform="translate(0 9)"/>
    <path id="Path-4" data-name="Path" class="cls-1" d="M7,1.261A1.261,1.261,0,0,0,5.739,0H1.261A1.261,1.261,0,0,0,0,1.261V5.739A1.261,1.261,0,0,0,1.261,7H5.739A1.261,1.261,0,0,0,7,5.739Z" transform="translate(9 9)"/>
  </g>
</svg>
