<svg xmlns="http://www.w3.org/2000/svg" viewBox="0 0 22.687 11.876">
  <defs>
    <style>
      .cls-1 {
        fill: #fff;
      }
    </style>
  </defs>
  <path id="Shape" class="cls-1" d="M22.687,11.876H17.832v-.266a3.787,3.787,0,0,0-.873-2.58,4.133,4.133,0,0,0-.986-.8,1.058,1.058,0,0,0,.455-.8,2.164,2.164,0,0,1-.759-1.859V4.9c0-.02,0-.041,0-.062a.4.4,0,0,1,0-.127c-.01-.01-.007-.026,0-.045a.179.179,0,0,0,0-.032V4.251c-.133-.082-.57-.383-.57-.8V2.164H18.59a1.306,1.306,0,0,1,1.4,1.29V5.578A2.117,2.117,0,0,1,19.273,7.4a1.153,1.153,0,0,0,.455.911l.08.038c1.734.813,2.879,1.351,2.879,3.3v.227Zm-5.387,0H5.387v-.266a3.321,3.321,0,0,1,.759-2.238A4.513,4.513,0,0,1,7.739,8.347c.166-.074.328-.14.468-.2l.007,0a4.435,4.435,0,0,0,.967-.483,1.245,1.245,0,0,0,.532-.949A2.694,2.694,0,0,1,8.65,4.554v-.8a.484.484,0,0,0,0-.056.237.237,0,0,1,0-.1V3.037a1.053,1.053,0,0,1-.531-.911V.266A.266.266,0,0,1,8.384,0H8.41a.226.226,0,0,1,.163.067.285.285,0,0,1,.077.2c0,.031.007.045.038.076A.656.656,0,0,0,8.84.456,1.382,1.382,0,0,0,9.3.533h3.149a1.576,1.576,0,0,1,1.593,1.593V3.492c0,.006,0,.012,0,.019v.013a.152.152,0,0,1,0,.081.231.231,0,0,1,0,.1.5.5,0,0,0,0,.057v.8a2.681,2.681,0,0,1-1.024,2.163,1.284,1.284,0,0,0,.531,1.024,6.1,6.1,0,0,0,1.336.677l.106.044a4.431,4.431,0,0,1,1.555.986,3.108,3.108,0,0,1,.759,2.163v.264Zm-12.443,0H0v-.228c0-1.94,1.134-2.476,2.849-3.287l.11-.052A1.152,1.152,0,0,0,3.415,7.4a2.119,2.119,0,0,1-.721-1.821V3.453a1.321,1.321,0,0,1,1.4-1.29h3.49v1.29c0,.415-.435.715-.569.8V5.578a2.164,2.164,0,0,1-.76,1.859,1.058,1.058,0,0,0,.455.8,3.914,3.914,0,0,0-.949.8,3.757,3.757,0,0,0-.91,2.58v.264Z" transform="translate(0 0)"/>
</svg>
