<svg xmlns="http://www.w3.org/2000/svg" width="15.227" height="15.227" viewBox="0 0 15.227 15.227"><g transform="translate(-5 -5)"><path d="M17.266,7.115A2.117,2.117,0,0,0,15.151,5H7.115A2.117,2.117,0,0,0,5,7.115V8.384H7.961v9.728a2.117,2.117,0,0,0,2.115,2.115h8.036a2.117,2.117,0,0,0,2.115-2.115V16.843H17.266Zm-11,0a.846.846,0,0,1,1.692,0Zm12.689,11a.847.847,0,0,1-.846.846h-6.1a2.1,2.1,0,0,0,.177-.846Zm-8.036-1.269v1.269a.846.846,0,1,1-1.692,0v-11a2.1,2.1,0,0,0-.177-.846h6.1A.847.847,0,0,1,16,7.115v9.728Z" fill="#626262"/><rect width="5.076" height="0.846" transform="translate(10.076 7.961)" fill="#626262"/><rect width="5.076" height="0.846" transform="translate(10.076 9.653)" fill="#626262"/><rect width="5.076" height="0.846" transform="translate(10.076 11.344)" fill="#626262"/><rect width="5.076" height="0.846" transform="translate(10.076 13.036)" fill="#626262"/><rect width="5.076" height="0.846" transform="translate(10.076 14.728)" fill="#626262"/></g></svg>