<svg xmlns="http://www.w3.org/2000/svg" width="107.039" height="100.859" viewBox="0 0 107.039 100.859">
  <g id="noun_discussion_2040541" transform="translate(-1.274 -4.878)">
    <g id="Group_85" data-name="Group 85" transform="translate(1.274 4.878)">
      <path id="Path_6" data-name="Path 6" d="M72.285,70.9A35.162,35.162,0,0,0,2.661,80.8a46.2,46.2,0,0,0,1.024,4.949,33.524,33.524,0,0,0,4.437,8.7V95.3a16.254,16.254,0,0,1-6.485,13.4.811.811,0,0,0-.341.853.724.724,0,0,0,.683.6,24.647,24.647,0,0,0,17.577-4.01,1.785,1.785,0,0,0,.512-.341l.171-.085a42.714,42.714,0,0,0,12.884,5.034,37.764,37.764,0,0,0,9.3-.085A35.151,35.151,0,0,0,72.285,70.9ZM21.006,80.543A4.693,4.693,0,1,1,25.7,75.851,4.679,4.679,0,0,1,21.006,80.543Zm16.553,0a4.693,4.693,0,1,1,4.693-4.693A4.734,4.734,0,0,1,37.559,80.543Zm16.553,0A4.693,4.693,0,1,1,58.8,75.851,4.792,4.792,0,0,1,54.111,80.543Z" transform="translate(-1.274 -10.134)" fill="#d8d8d8"/>
      <path id="Path_7" data-name="Path 7" d="M114.636,73.666a.724.724,0,0,1-.683.6,24.647,24.647,0,0,1-17.577-4.01c-.171-.085-.341-.256-.512-.341l-.171-.085a43.227,43.227,0,0,1-12.457,4.949,42.033,42.033,0,0,0-.171-9.812A39.161,39.161,0,0,0,67.623,38.855,38.665,38.665,0,0,0,44.5,30.92,35.163,35.163,0,0,1,113.27,45a31.987,31.987,0,0,1-1.109,4.949,33.525,33.525,0,0,1-4.437,8.7V59.5a16.254,16.254,0,0,0,6.485,13.4A.692.692,0,0,1,114.636,73.666Z" transform="translate(-7.618 -4.878)" fill="#d8d8d8"/>
    </g>
  </g>
</svg>
