<svg xmlns="http://www.w3.org/2000/svg" width="20.69" height="10.831" viewBox="0 0 20.69 10.831"><path d="M20.69,10.831H16.262v-.242a3.453,3.453,0,0,0-.8-2.353,3.769,3.769,0,0,0-.9-.726.965.965,0,0,0,.415-.726,1.973,1.973,0,0,1-.692-1.7V4.464c0-.018,0-.037,0-.056a.362.362,0,0,1,0-.116c-.009-.01-.006-.024,0-.041a.164.164,0,0,0,0-.029V3.877c-.122-.074-.52-.349-.52-.727V1.973h3.184a1.191,1.191,0,0,1,1.28,1.176V5.087a1.931,1.931,0,0,1-.657,1.66,1.051,1.051,0,0,0,.415.831l.073.034c1.581.742,2.625,1.232,2.625,3.011v.207Zm-4.913,0H4.913v-.242a3.029,3.029,0,0,1,.692-2.041,4.115,4.115,0,0,1,1.453-.935c.151-.067.3-.128.427-.179l.006,0a4.044,4.044,0,0,0,.882-.441,1.136,1.136,0,0,0,.485-.865,2.457,2.457,0,0,1-.969-1.972V3.427a.441.441,0,0,0,0-.051.216.216,0,0,1,0-.088V2.769A.96.96,0,0,1,7.4,1.939V.243A.242.242,0,0,1,7.646,0h.023a.206.206,0,0,1,.149.062.259.259,0,0,1,.071.181c0,.028.006.041.034.07a.6.6,0,0,0,.139.1,1.26,1.26,0,0,0,.415.07h2.872A1.437,1.437,0,0,1,12.8,1.939V3.185c0,.005,0,.011,0,.018v.012a.139.139,0,0,1,0,.074.211.211,0,0,1,0,.087.457.457,0,0,0,0,.052v.726a2.445,2.445,0,0,1-.934,1.972,1.171,1.171,0,0,0,.484.934,5.562,5.562,0,0,0,1.219.618l.1.04a4.041,4.041,0,0,1,1.418.9,2.834,2.834,0,0,1,.692,1.972v.241Zm-11.348,0H0v-.208c0-1.769,1.034-2.258,2.6-3l.1-.048a1.05,1.05,0,0,0,.415-.831,1.932,1.932,0,0,1-.657-1.66V3.149a1.2,1.2,0,0,1,1.28-1.176H6.92V3.149c0,.379-.4.652-.519.727V5.087a1.974,1.974,0,0,1-.693,1.7.965.965,0,0,0,.415.726,3.569,3.569,0,0,0-.865.726,3.426,3.426,0,0,0-.83,2.353v.241Z" fill="#616161"/></svg>