<svg xmlns="http://www.w3.org/2000/svg" width="49.066" height="63.787" viewBox="0 0 49.066 63.787"><g transform="translate(-79 -41)"><g transform="translate(16 8.666)"><g transform="translate(63 32.281)"><path d="M0,0V12.362H12.362Z" transform="translate(36.167 0.59)" fill="#626262"/><path d="M31.635,18.129V0H0V63.787H49.066V18.129Z" transform="translate(0 0.053)" fill="#626262"/></g></g><g transform="translate(57 39.409)"><g transform="translate(27.196 19.111)"><path d="M52.721,41.531c-1.575-1.756-3.131-3.718-4.532-5.483-.661-.834-1.293-1.63-1.884-2.352l-.044-.053a24.73,24.73,0,0,0,1.471-6c.281-3.861-.151-6.349-1.317-7.6a2.9,2.9,0,0,0-3.084-.77,4.076,4.076,0,0,0-2.494,2.874c-.92,2.819-.474,7.811,2.14,11.939a88.144,88.144,0,0,1-4.589,9.908,21.778,21.778,0,0,0-8.1,4.689c-2.557,2.5-3.6,4.973-2.852,6.795a2.923,2.923,0,0,0,2.833,1.8,5.343,5.343,0,0,0,2.866-.956c2.421-1.583,5.582-6.856,7.278-9.912A45.119,45.119,0,0,1,49.14,44.7c.8-.077,1.587-.138,2.348-.181,3.081,3.253,5.6,4.969,7.922,5.4a7.608,7.608,0,0,0,1.391.131,4.662,4.662,0,0,0,4.185-2.018,2.99,2.99,0,0,0-.031-3.057c-1.288-2.23-5.175-3.458-10.946-3.458C53.593,41.511,53.165,41.517,52.721,41.531Zm-21.2,12.337a2.584,2.584,0,0,1-1.26.477.568.568,0,0,1-.13-.013c-.058-.292.15-1.556,2.2-3.557a15.475,15.475,0,0,1,3.617-2.556C34.132,51.143,32.5,53.232,31.524,53.868Zm12.1-30.813c.214-.654.478-.95.643-1l.011,0c.159.179.836,1.2.533,5.385a14.973,14.973,0,0,1-.529,2.747A11.6,11.6,0,0,1,43.622,23.054ZM48.857,41.78a49.779,49.779,0,0,0-6.584,1.086c1.028-2.052,1.979-4.131,2.774-6.058q.413.518.844,1.062c.959,1.208,2.036,2.567,3.152,3.893Zm13.557,4.654c.044.075.043.106.032.126a2.032,2.032,0,0,1-1.649.553,4.707,4.707,0,0,1-.856-.083,9.732,9.732,0,0,1-4.3-2.55C60.2,44.7,62.045,45.8,62.414,46.434Z" transform="translate(-27.196 -19.111)" fill="#fff"/></g></g></g></svg>