<svg id="noun_Video_1373262" xmlns="http://www.w3.org/2000/svg" viewBox="0 0 12 6.75">
  <defs>
    <style>
      .cls-1 {
        fill: #057eff;
      }
    </style>
  </defs>
  <path id="Shape" class="cls-1" d="M7.882,6.75H.667A.646.646,0,0,1,0,6.111V.639A.646.646,0,0,1,.667,0H7.882a.662.662,0,0,1,.667.639V6.111A.646.646,0,0,1,7.882,6.75Zm3.785-.771a.307.307,0,0,1-.176-.037L9,4.55V2.2L11.49.827a.6.6,0,0,1,.176-.038A.335.335,0,0,1,12,1.11V5.64a.275.275,0,0,1-.1.245A.331.331,0,0,1,11.667,5.979Z"/>
</svg>
